<svg xmlns="http://www.w3.org/2000/svg" xmlns:xlink="http://www.w3.org/1999/xlink" width="500" zoomAndPan="magnify" viewBox="0 0 375 187.499995" height="250" preserveAspectRatio="xMidYMid meet" version="1.0"><defs><g/><clipPath id="9d1d961c66"><path d="M 114.03125 0.703125 L 328.933594 0.703125 L 328.933594 128.300781 L 114.03125 128.300781 Z M 114.03125 0.703125 " clip-rule="nonzero"/></clipPath><clipPath id="f0622bd692"><path d="M 0.03125 0.703125 L 214.933594 0.703125 L 214.933594 128.300781 L 0.03125 128.300781 Z M 0.03125 0.703125 " clip-rule="nonzero"/></clipPath><clipPath id="fc448195f1"><rect x="0" width="215" y="0" height="129"/></clipPath><clipPath id="63d5cd60d0"><path d="M 0.0664062 0.703125 L 103.820312 0.703125 L 103.820312 128.300781 L 0.0664062 128.300781 Z M 0.0664062 0.703125 " clip-rule="nonzero"/></clipPath><clipPath id="bfe9e3748b"><path d="M 0.0664062 0.703125 L 103.820312 0.703125 L 103.820312 128.300781 L 0.0664062 128.300781 Z M 0.0664062 0.703125 " clip-rule="nonzero"/></clipPath><clipPath id="a6a265fc70"><rect x="0" width="104" y="0" height="129"/></clipPath><clipPath id="bea263a2c6"><path d="M 56 45 L 94.953125 45 L 94.953125 93 L 56 93 Z M 56 45 " clip-rule="nonzero"/></clipPath><clipPath id="c065027ee7"><path d="M 8.839844 45 L 48 45 L 48 93 L 8.839844 93 Z M 8.839844 45 " clip-rule="nonzero"/></clipPath><clipPath id="5dd5b6d5a9"><path d="M 43 29.28125 L 61 29.28125 L 61 100 L 43 100 Z M 43 29.28125 " clip-rule="nonzero"/></clipPath><clipPath id="d2d3db6d52"><rect x="0" width="330" y="0" height="129"/></clipPath></defs><g transform="matrix(1, 0, 0, 1, 23, 29)"><g clip-path="url(#d2d3db6d52)"><g clip-path="url(#9d1d961c66)"><g transform="matrix(1, 0, 0, 1, 114, -0.000000000000007105)"><g clip-path="url(#fc448195f1)"><g clip-path="url(#f0622bd692)"><path fill="#282973" d="M 0.03125 0.703125 L 214.851562 0.703125 L 214.851562 128.300781 L 0.03125 128.300781 Z M 0.03125 0.703125 " fill-opacity="1" fill-rule="nonzero"/></g></g></g></g><path fill="#ffffff" d="M 129.757812 87.0625 L 313.203125 87.0625 L 313.203125 94.042969 L 129.757812 94.042969 Z M 129.757812 87.0625 " fill-opacity="1" fill-rule="nonzero"/><g fill="#ffffff" fill-opacity="1"><g transform="translate(129.757517, 82.406499)"><g><path d="M 8.40625 -47.59375 L 2.703125 -48.515625 L 2.703125 -52.9375 L 40.6875 -52.9375 L 41.609375 -40.96875 L 36.625 -40.96875 L 34.265625 -48.015625 L 18.875 -48.65625 L 18.875 -29.5 L 28.78125 -29.71875 L 29.921875 -35.546875 L 34.484375 -35.546875 L 34.484375 -18.3125 L 29.921875 -18.3125 L 28.78125 -24.4375 L 18.875 -24.65625 L 18.875 -4.5625 L 36.125 -5.421875 L 40.25 -14.53125 L 45.59375 -13.03125 L 43.75 0 L 2.78125 0 L 2.78125 -4.28125 L 8.40625 -4.984375 Z M 8.40625 -47.59375 "/></g></g></g><g fill="#ffffff" fill-opacity="1"><g transform="translate(176.419226, 82.406499)"><g/></g></g><g fill="#ffffff" fill-opacity="1"><g transform="translate(193.302925, 82.406499)"><g><path d="M 27.5 0.78125 C 22.28125 0.78125 17.78125 -0.367188 14 -2.671875 C 10.226562 -4.972656 7.367188 -8.140625 5.421875 -12.171875 C 3.472656 -16.210938 2.5 -20.773438 2.5 -25.859375 C 2.5 -31.703125 3.625 -36.710938 5.875 -40.890625 C 8.132812 -45.078125 11.328125 -48.238281 15.453125 -50.375 C 19.585938 -52.507812 24.410156 -53.578125 29.921875 -53.578125 C 35.097656 -53.578125 40.914062 -52.84375 47.375 -51.375 L 46.59375 -38.125 L 39.40625 -38.125 L 37.484375 -47.234375 C 37.003906 -47.710938 36.097656 -48.148438 34.765625 -48.546875 C 33.441406 -48.953125 31.707031 -49.15625 29.5625 -49.15625 C 24.914062 -49.15625 21.257812 -47.265625 18.59375 -43.484375 C 15.9375 -39.710938 14.609375 -34.265625 14.609375 -27.140625 C 14.609375 -20.160156 15.75 -14.519531 18.03125 -10.21875 C 20.3125 -5.925781 23.773438 -3.78125 28.421875 -3.78125 C 30.328125 -3.78125 32.109375 -4.015625 33.765625 -4.484375 C 35.429688 -4.960938 36.691406 -5.582031 37.546875 -6.34375 L 37.546875 -21.65625 L 30 -22.375 L 30 -27.140625 L 51.65625 -27.140625 L 51.65625 -22.375 L 47.875 -21.734375 L 47.875 -2.84375 C 46.882812 -2.800781 45.082031 -2.398438 42.46875 -1.640625 C 39.425781 -0.828125 36.820312 -0.222656 34.65625 0.171875 C 32.5 0.578125 30.113281 0.78125 27.5 0.78125 Z M 27.5 0.78125 "/></g></g></g><g fill="#ffffff" fill-opacity="1"><g transform="translate(246.304933, 82.406499)"><g/></g></g><g fill="#ffffff" fill-opacity="1"><g transform="translate(263.188631, 82.406499)"><g><path d="M 19.453125 -53.21875 L 30.359375 -53.21875 L 46.8125 -4.984375 L 50.9375 -4.28125 L 50.9375 0 L 29.921875 0 L 29.921875 -4.28125 L 35.265625 -4.984375 L 32.484375 -14.25 L 14.03125 -14.25 L 11.25 -4.921875 L 17.03125 -4.28125 L 17.03125 0 L -1.140625 0 L -1.21875 -4.28125 L 3.0625 -4.984375 Z M 24.375 -41.1875 L 23.078125 -46.734375 L 21.734375 -41.109375 L 15.390625 -19.234375 L 31.0625 -19.234375 Z M 24.375 -41.1875 "/></g></g></g><g clip-path="url(#63d5cd60d0)"><g transform="matrix(1, 0, 0, 1, -0.000000000000003553, -0.000000000000007105)"><g clip-path="url(#a6a265fc70)"><g clip-path="url(#bfe9e3748b)"><path fill="#282973" d="M 0.0664062 0.703125 L 103.820312 0.703125 L 103.820312 128.367188 L 0.0664062 128.367188 Z M 0.0664062 0.703125 " fill-opacity="1" fill-rule="nonzero"/></g></g></g></g><g fill="#ffffff" fill-opacity="1"><g transform="translate(134.906092, 114.111319)"><g><path d="M 1.65625 -9.328125 L 0.59375 -9.515625 L 0.59375 -10.375 L 5.0625 -10.375 L 5.0625 -9.515625 L 3.71875 -9.328125 L 3.71875 -0.984375 L 6.703125 -1.125 L 7.578125 -3.734375 L 8.71875 -3.578125 L 8.28125 0 L 0.5625 0 L 0.5625 -0.84375 L 1.65625 -0.984375 Z M 1.65625 -9.328125 "/></g></g></g><g fill="#ffffff" fill-opacity="1"><g transform="translate(147.166715, 114.111319)"><g><path d="M 3.8125 -10.4375 L 5.953125 -10.4375 L 9.171875 -0.984375 L 9.984375 -0.84375 L 9.984375 0 L 5.859375 0 L 5.859375 -0.84375 L 6.921875 -0.984375 L 6.375 -2.796875 L 2.75 -2.796875 L 2.203125 -0.96875 L 3.34375 -0.84375 L 3.34375 0 L -0.21875 0 L -0.234375 -0.84375 L 0.59375 -0.984375 Z M 4.78125 -8.078125 L 4.53125 -9.15625 L 4.265625 -8.0625 L 3.015625 -3.765625 L 6.09375 -3.765625 Z M 4.78125 -8.078125 "/></g></g></g><g fill="#ffffff" fill-opacity="1"><g transform="translate(160.321052, 114.111319)"><g><path d="M -0.25 -10.375 L 3.9375 -10.375 L 3.9375 -9.515625 L 2.71875 -9.328125 L 4.484375 -3.03125 L 4.8125 -1.484375 L 5.125 -3.03125 L 6.625 -8.140625 L 6.234375 -9.328125 L 5.3125 -9.515625 L 5.3125 -10.375 L 9.6875 -10.375 L 9.6875 -9.515625 L 8.34375 -9.328125 L 10.078125 -3.03125 L 10.46875 -1.359375 L 10.75 -3.03125 L 12.34375 -9.328125 L 11.09375 -9.515625 L 11.09375 -10.375 L 14.453125 -10.375 L 14.453125 -9.515625 L 13.5625 -9.328125 L 10.90625 0.0625 L 9.0625 0.0625 L 7.140625 -6.453125 L 5.296875 0.0625 L 3.484375 0.0625 L 0.59375 -9.3125 L -0.25 -9.515625 Z M -0.25 -10.375 "/></g></g></g><g fill="#ffffff" fill-opacity="1"><g transform="translate(177.874149, 114.111319)"><g/></g></g><g fill="#ffffff" fill-opacity="1"><g transform="translate(184.535093, 114.111319)"><g><path d="M 10.46875 -4.8125 L 9.421875 -4.640625 C 9.429688 -4.046875 9.335938 -3.492188 9.140625 -2.984375 C 8.953125 -2.484375 8.695312 -2.0625 8.375 -1.71875 C 8.664062 -1.457031 8.945312 -1.257812 9.21875 -1.125 C 9.5 -0.988281 9.804688 -0.910156 10.140625 -0.890625 L 10.140625 -0.109375 C 10.046875 -0.046875 9.859375 0 9.578125 0.03125 C 9.304688 0.0703125 9.085938 0.09375 8.921875 0.09375 C 8.554688 0.09375 8.238281 0.046875 7.96875 -0.046875 C 7.707031 -0.148438 7.410156 -0.320312 7.078125 -0.5625 C 6.453125 -0.09375 5.601562 0.140625 4.53125 0.140625 C 3.320312 0.140625 2.375 -0.101562 1.6875 -0.59375 C 1 -1.082031 0.65625 -1.765625 0.65625 -2.640625 C 0.65625 -3.234375 0.851562 -3.742188 1.25 -4.171875 C 1.65625 -4.597656 2.160156 -4.929688 2.765625 -5.171875 C 2.390625 -5.648438 2.097656 -6.101562 1.890625 -6.53125 C 1.679688 -6.96875 1.578125 -7.441406 1.578125 -7.953125 C 1.578125 -8.410156 1.707031 -8.835938 1.96875 -9.234375 C 2.238281 -9.628906 2.601562 -9.941406 3.0625 -10.171875 C 3.53125 -10.398438 4.046875 -10.515625 4.609375 -10.515625 C 5.191406 -10.515625 5.6875 -10.421875 6.09375 -10.234375 C 6.5 -10.046875 6.800781 -9.796875 7 -9.484375 C 7.195312 -9.179688 7.296875 -8.859375 7.296875 -8.515625 C 7.296875 -8.015625 7.203125 -7.582031 7.015625 -7.21875 C 6.835938 -6.863281 6.578125 -6.550781 6.234375 -6.28125 C 5.898438 -6.007812 5.453125 -5.722656 4.890625 -5.421875 C 5.265625 -4.972656 5.695312 -4.46875 6.1875 -3.90625 C 6.6875 -3.351562 7.097656 -2.925781 7.421875 -2.625 L 7.703125 -2.359375 C 8.023438 -2.890625 8.1875 -3.546875 8.1875 -4.328125 L 8.171875 -4.640625 L 7.09375 -4.8125 L 7.09375 -5.734375 L 10.46875 -5.734375 Z M 3.421875 -8.265625 C 3.421875 -7.835938 3.515625 -7.441406 3.703125 -7.078125 C 3.898438 -6.710938 4.140625 -6.359375 4.421875 -6.015625 C 4.867188 -6.410156 5.1875 -6.796875 5.375 -7.171875 C 5.5625 -7.554688 5.65625 -8 5.65625 -8.5 C 5.65625 -8.820312 5.578125 -9.117188 5.421875 -9.390625 C 5.265625 -9.671875 4.988281 -9.8125 4.59375 -9.8125 C 4.25 -9.8125 3.96875 -9.671875 3.75 -9.390625 C 3.53125 -9.117188 3.421875 -8.742188 3.421875 -8.265625 Z M 4.75 -0.765625 C 5.394531 -0.765625 5.90625 -0.90625 6.28125 -1.1875 C 5.914062 -1.5 5.519531 -1.890625 5.09375 -2.359375 C 4.675781 -2.835938 4.1875 -3.414062 3.625 -4.09375 C 3.53125 -4.207031 3.421875 -4.34375 3.296875 -4.5 C 3.035156 -4.28125 2.820312 -4.023438 2.65625 -3.734375 C 2.488281 -3.453125 2.40625 -3.144531 2.40625 -2.8125 C 2.40625 -2.207031 2.609375 -1.710938 3.015625 -1.328125 C 3.429688 -0.953125 4.007812 -0.765625 4.75 -0.765625 Z M 4.75 -0.765625 "/></g></g></g><g fill="#ffffff" fill-opacity="1"><g transform="translate(198.527285, 114.111319)"><g/></g></g><g fill="#ffffff" fill-opacity="1"><g transform="translate(205.188228, 114.111319)"><g><path d="M 3.8125 -10.4375 L 5.953125 -10.4375 L 9.171875 -0.984375 L 9.984375 -0.84375 L 9.984375 0 L 5.859375 0 L 5.859375 -0.84375 L 6.921875 -0.984375 L 6.375 -2.796875 L 2.75 -2.796875 L 2.203125 -0.96875 L 3.34375 -0.84375 L 3.34375 0 L -0.21875 0 L -0.234375 -0.84375 L 0.59375 -0.984375 Z M 4.78125 -8.078125 L 4.53125 -9.15625 L 4.265625 -8.0625 L 3.015625 -3.765625 L 6.09375 -3.765625 Z M 4.78125 -8.078125 "/></g></g></g><g fill="#ffffff" fill-opacity="1"><g transform="translate(218.342566, 114.111319)"><g><path d="M 3.9375 -9.453125 L 1.9375 -9.390625 L 1.390625 -6.34375 L 0.21875 -6.34375 L 0.46875 -10.375 L 9.46875 -10.375 L 9.640625 -6.34375 L 8.53125 -6.34375 L 7.984375 -9.390625 L 6.015625 -9.453125 L 6.015625 -0.984375 L 7.96875 -0.84375 L 7.96875 0 L 2.15625 0 L 2.15625 -0.84375 L 3.9375 -0.984375 Z M 3.9375 -9.453125 "/></g></g></g><g fill="#ffffff" fill-opacity="1"><g transform="translate(231.636558, 114.111319)"><g><path d="M 3.9375 -9.453125 L 1.9375 -9.390625 L 1.390625 -6.34375 L 0.21875 -6.34375 L 0.46875 -10.375 L 9.46875 -10.375 L 9.640625 -6.34375 L 8.53125 -6.34375 L 7.984375 -9.390625 L 6.015625 -9.453125 L 6.015625 -0.984375 L 7.96875 -0.84375 L 7.96875 0 L 2.15625 0 L 2.15625 -0.84375 L 3.9375 -0.984375 Z M 3.9375 -9.453125 "/></g></g></g><g fill="#ffffff" fill-opacity="1"><g transform="translate(244.930549, 114.111319)"><g><path d="M 4.953125 0.15625 C 3.441406 0.15625 2.304688 -0.316406 1.546875 -1.265625 C 0.796875 -2.222656 0.421875 -3.519531 0.421875 -5.15625 C 0.421875 -6.226562 0.617188 -7.164062 1.015625 -7.96875 C 1.410156 -8.78125 1.960938 -9.40625 2.671875 -9.84375 C 3.390625 -10.28125 4.21875 -10.5 5.15625 -10.5 C 6.6875 -10.5 7.835938 -10.046875 8.609375 -9.140625 C 9.378906 -8.234375 9.765625 -6.96875 9.765625 -5.34375 C 9.765625 -4.257812 9.5625 -3.300781 9.15625 -2.46875 C 8.75 -1.632812 8.179688 -0.988281 7.453125 -0.53125 C 6.734375 -0.0703125 5.898438 0.15625 4.953125 0.15625 Z M 5.09375 -9.65625 C 4.332031 -9.65625 3.738281 -9.273438 3.3125 -8.515625 C 2.882812 -7.765625 2.671875 -6.648438 2.671875 -5.171875 C 2.671875 -3.703125 2.875 -2.585938 3.28125 -1.828125 C 3.695312 -1.078125 4.296875 -0.703125 5.078125 -0.703125 C 5.828125 -0.703125 6.414062 -1.097656 6.84375 -1.890625 C 7.269531 -2.691406 7.484375 -3.84375 7.484375 -5.34375 C 7.484375 -6.789062 7.28125 -7.867188 6.875 -8.578125 C 6.46875 -9.296875 5.875 -9.65625 5.09375 -9.65625 Z M 5.09375 -9.65625 "/></g></g></g><g fill="#ffffff" fill-opacity="1"><g transform="translate(258.44797, 114.111319)"><g><path d="M 0.546875 -0.84375 L 1.640625 -0.984375 L 1.640625 -9.328125 L 0.59375 -9.53125 L 0.59375 -10.375 L 2.625 -10.375 C 2.800781 -10.375 2.992188 -10.378906 3.203125 -10.390625 C 3.421875 -10.398438 3.585938 -10.410156 3.703125 -10.421875 C 4.179688 -10.453125 4.582031 -10.46875 4.90625 -10.46875 C 5.863281 -10.46875 6.628906 -10.367188 7.203125 -10.171875 C 7.785156 -9.984375 8.207031 -9.6875 8.46875 -9.28125 C 8.726562 -8.882812 8.859375 -8.359375 8.859375 -7.703125 C 8.859375 -7.066406 8.6875 -6.472656 8.34375 -5.921875 C 8 -5.367188 7.5 -4.992188 6.84375 -4.796875 C 7.21875 -4.628906 7.546875 -4.335938 7.828125 -3.921875 C 8.117188 -3.503906 8.429688 -2.960938 8.765625 -2.296875 C 8.992188 -1.835938 9.171875 -1.503906 9.296875 -1.296875 C 9.421875 -1.097656 9.546875 -0.988281 9.671875 -0.96875 L 10.125 -0.828125 L 10.125 0 L 7.75 0 C 7.601562 0 7.445312 -0.148438 7.28125 -0.453125 C 7.125 -0.753906 6.914062 -1.234375 6.65625 -1.890625 C 6.34375 -2.648438 6.070312 -3.242188 5.84375 -3.671875 C 5.625 -4.097656 5.390625 -4.363281 5.140625 -4.46875 L 3.703125 -4.46875 L 3.703125 -0.984375 L 4.984375 -0.84375 L 4.984375 0 L 0.546875 0 Z M 4.984375 -5.328125 C 5.515625 -5.328125 5.925781 -5.515625 6.21875 -5.890625 C 6.519531 -6.273438 6.671875 -6.847656 6.671875 -7.609375 C 6.671875 -8.285156 6.523438 -8.785156 6.234375 -9.109375 C 5.941406 -9.441406 5.4375 -9.609375 4.71875 -9.609375 C 4.457031 -9.609375 4.234375 -9.597656 4.046875 -9.578125 C 3.867188 -9.554688 3.753906 -9.546875 3.703125 -9.546875 L 3.703125 -5.34375 C 3.816406 -5.332031 4.085938 -5.328125 4.515625 -5.328125 Z M 4.984375 -5.328125 "/></g></g></g><g fill="#ffffff" fill-opacity="1"><g transform="translate(271.867624, 114.111319)"><g><path d="M 1.65625 -9.328125 L 0.5625 -9.515625 L 0.5625 -10.375 L 3.734375 -10.375 L 7.890625 -4.09375 L 8.671875 -2.5 L 8.671875 -9.328125 L 7.46875 -9.515625 L 7.46875 -10.375 L 10.9375 -10.375 L 10.9375 -9.515625 L 9.859375 -9.328125 L 9.859375 0 L 8.171875 0 L 3.828125 -6.609375 L 2.84375 -8.453125 L 2.84375 -0.984375 L 4.265625 -0.84375 L 4.265625 0 L 0.5625 0 L 0.5625 -0.84375 L 1.65625 -0.984375 Z M 1.65625 -9.328125 "/></g></g></g><g fill="#ffffff" fill-opacity="1"><g transform="translate(286.432353, 114.111319)"><g><path d="M 1.640625 -9.328125 L 0.53125 -9.515625 L 0.53125 -10.375 L 7.96875 -10.375 L 8.15625 -8.03125 L 7.1875 -8.03125 L 6.71875 -9.421875 L 3.703125 -9.546875 L 3.703125 -5.78125 L 5.640625 -5.828125 L 5.859375 -6.96875 L 6.765625 -6.96875 L 6.765625 -3.59375 L 5.859375 -3.59375 L 5.640625 -4.796875 L 3.703125 -4.828125 L 3.703125 -0.890625 L 7.078125 -1.0625 L 7.890625 -2.84375 L 8.9375 -2.5625 L 8.578125 0 L 0.546875 0 L 0.546875 -0.84375 L 1.640625 -0.984375 Z M 1.640625 -9.328125 "/></g></g></g><g fill="#ffffff" fill-opacity="1"><g transform="translate(298.930378, 114.111319)"><g><path d="M 3.5625 -4.125 L 0.578125 -9.328125 L -0.21875 -9.515625 L -0.21875 -10.375 L 3.890625 -10.375 L 3.890625 -9.515625 L 2.890625 -9.328125 L 4.640625 -5.90625 L 5.03125 -4.9375 L 5.4375 -5.90625 L 7.046875 -9.328125 L 5.953125 -9.515625 L 5.953125 -10.375 L 9.359375 -10.375 L 9.359375 -9.515625 L 8.5 -9.34375 L 5.71875 -4.140625 L 5.71875 -0.984375 L 7.234375 -0.84375 L 7.234375 0 L 2.078125 0 L 2.078125 -0.84375 L 3.5625 -0.984375 Z M 3.5625 -4.125 "/></g></g></g><g clip-path="url(#bea263a2c6)"><path fill="#ffffff" d="M 93.164062 74.453125 L 88.820312 59.074219 C 89.269531 58.964844 89.703125 58.8125 90.121094 58.609375 C 90.535156 58.40625 90.925781 58.160156 91.289062 57.875 C 91.652344 57.585938 91.980469 57.261719 92.273438 56.90625 C 92.566406 56.546875 92.816406 56.160156 93.027344 55.75 C 93.238281 55.335938 93.398438 54.90625 93.515625 54.457031 C 93.632812 54.011719 93.699219 53.554688 93.71875 53.09375 C 93.734375 52.628906 93.703125 52.171875 93.621094 51.714844 C 93.542969 51.261719 93.410156 50.820312 93.234375 50.390625 C 93.058594 49.964844 92.835938 49.558594 92.574219 49.179688 C 92.308594 48.800781 92.007812 48.453125 91.667969 48.136719 C 91.328125 47.824219 90.957031 47.550781 90.558594 47.316406 C 90.160156 47.082031 89.738281 46.890625 89.300781 46.75 C 88.859375 46.605469 88.410156 46.511719 87.949219 46.464844 C 87.488281 46.417969 87.027344 46.421875 86.570312 46.476562 C 86.109375 46.527344 85.660156 46.632812 85.222656 46.78125 C 84.785156 46.933594 84.367188 47.128906 83.972656 47.371094 C 83.578125 47.609375 83.214844 47.890625 82.878906 48.210938 C 82.542969 48.53125 82.25 48.882812 81.988281 49.265625 C 81.730469 49.652344 81.519531 50.058594 81.347656 50.488281 C 81.175781 50.917969 81.054688 51.363281 80.980469 51.820312 C 80.90625 52.277344 80.882812 52.734375 80.910156 53.199219 C 80.933594 53.660156 81.007812 54.113281 81.132812 54.558594 C 81.257812 55.003906 81.425781 55.433594 81.644531 55.84375 C 81.859375 56.25 82.117188 56.632812 82.417969 56.984375 C 82.25 56.992188 82.09375 56.992188 81.949219 56.992188 C 74.890625 56.941406 71.519531 51.601562 60.730469 47.046875 C 59.042969 46.332031 57.644531 45.839844 56.804688 45.554688 L 56.804688 92.523438 L 60.230469 92.523438 L 60.230469 51.910156 C 71.027344 54.917969 74.722656 59.765625 80.734375 58.980469 C 81.761719 58.84375 82.75 58.5625 83.695312 58.136719 C 84.300781 58.554688 84.957031 58.855469 85.667969 59.042969 L 81.3125 74.453125 L 79.574219 74.453125 L 79.574219 74.507812 C 79.578125 75.011719 79.632812 75.507812 79.734375 76.003906 C 79.839844 76.496094 79.988281 76.976562 80.183594 77.441406 C 80.382812 77.90625 80.621094 78.347656 80.90625 78.765625 C 81.1875 79.183594 81.507812 79.570312 81.867188 79.921875 C 82.226562 80.277344 82.617188 80.59375 83.035156 80.875 C 83.457031 81.152344 83.902344 81.386719 84.367188 81.578125 C 84.832031 81.773438 85.316406 81.917969 85.808594 82.015625 C 86.304688 82.113281 86.804688 82.160156 87.308594 82.160156 C 87.8125 82.160156 88.3125 82.113281 88.808594 82.015625 C 89.304688 81.917969 89.785156 81.773438 90.25 81.578125 C 90.71875 81.386719 91.160156 81.152344 91.582031 80.875 C 92.003906 80.59375 92.390625 80.277344 92.75 79.921875 C 93.109375 79.570312 93.429688 79.183594 93.714844 78.765625 C 93.996094 78.347656 94.238281 77.90625 94.433594 77.441406 C 94.628906 76.976562 94.78125 76.496094 94.882812 76.003906 C 94.984375 75.507812 95.039062 75.011719 95.046875 74.507812 L 95.046875 74.449219 Z M 92.34375 74.453125 L 87.710938 74.453125 L 87.804688 59.234375 C 87.882812 59.230469 87.964844 59.222656 88.042969 59.214844 Z M 86.441406 59.195312 C 86.628906 59.21875 86.820312 59.238281 87.015625 59.246094 L 86.921875 74.449219 L 82.132812 74.449219 Z M 86.441406 59.195312 " fill-opacity="1" fill-rule="nonzero"/></g><g clip-path="url(#c065027ee7)"><path fill="#ffffff" d="M 20.195312 58.136719 C 21.140625 58.5625 22.125 58.84375 23.152344 58.980469 C 29.160156 59.769531 32.855469 54.917969 43.652344 51.910156 L 43.652344 92.523438 L 47.078125 92.523438 L 47.078125 45.554688 C 46.238281 45.835938 44.835938 46.328125 43.15625 47.046875 C 32.371094 51.601562 28.996094 56.941406 21.9375 56.992188 C 21.792969 56.992188 21.636719 56.992188 21.46875 56.984375 C 21.769531 56.632812 22.023438 56.253906 22.238281 55.847656 C 22.457031 55.441406 22.625 55.015625 22.75 54.570312 C 22.875 54.128906 22.949219 53.675781 22.976562 53.214844 C 23 52.757812 22.980469 52.296875 22.90625 51.84375 C 22.835938 51.390625 22.714844 50.945312 22.546875 50.519531 C 22.378906 50.089844 22.167969 49.683594 21.914062 49.296875 C 21.660156 48.914062 21.363281 48.5625 21.035156 48.242188 C 20.703125 47.921875 20.34375 47.640625 19.949219 47.398438 C 19.558594 47.15625 19.144531 46.957031 18.710938 46.804688 C 18.277344 46.652344 17.832031 46.546875 17.375 46.488281 C 16.917969 46.429688 16.457031 46.421875 16 46.464844 C 15.542969 46.503906 15.09375 46.59375 14.652344 46.734375 C 14.214844 46.871094 13.792969 47.054688 13.394531 47.285156 C 12.992188 47.511719 12.625 47.78125 12.28125 48.089844 C 11.9375 48.398438 11.632812 48.742188 11.367188 49.117188 C 11.097656 49.488281 10.871094 49.890625 10.691406 50.3125 C 10.507812 50.734375 10.371094 51.171875 10.285156 51.625 C 10.195312 52.078125 10.160156 52.535156 10.167969 52.992188 C 10.179688 53.453125 10.238281 53.910156 10.347656 54.355469 C 10.457031 54.804688 10.609375 55.234375 10.8125 55.648438 C 11.011719 56.0625 11.257812 56.453125 11.542969 56.8125 C 11.828125 57.175781 12.148438 57.503906 12.503906 57.796875 C 12.859375 58.089844 13.242188 58.339844 13.652344 58.550781 C 14.0625 58.761719 14.488281 58.925781 14.933594 59.042969 L 10.582031 74.453125 L 8.839844 74.453125 L 8.839844 74.507812 C 8.847656 75.011719 8.902344 75.507812 9.003906 76.003906 C 9.105469 76.496094 9.257812 76.976562 9.453125 77.441406 C 9.652344 77.90625 9.890625 78.347656 10.171875 78.765625 C 10.457031 79.183594 10.777344 79.570312 11.136719 79.925781 C 11.496094 80.277344 11.882812 80.59375 12.304688 80.875 C 12.726562 81.152344 13.167969 81.386719 13.636719 81.578125 C 14.101562 81.773438 14.582031 81.917969 15.078125 82.015625 C 15.574219 82.113281 16.074219 82.160156 16.578125 82.160156 C 17.082031 82.160156 17.582031 82.113281 18.078125 82.015625 C 18.574219 81.917969 19.054688 81.773438 19.519531 81.578125 C 19.988281 81.386719 20.429688 81.152344 20.851562 80.875 C 21.273438 80.59375 21.660156 80.277344 22.019531 79.925781 C 22.378906 79.570312 22.699219 79.183594 22.984375 78.765625 C 23.265625 78.347656 23.503906 77.90625 23.703125 77.441406 C 23.898438 76.976562 24.050781 76.496094 24.152344 76.003906 C 24.253906 75.507812 24.308594 75.011719 24.316406 74.507812 L 24.316406 74.449219 L 22.433594 74.449219 L 18.089844 59.074219 C 18.847656 58.890625 19.550781 58.578125 20.195312 58.136719 Z M 15.707031 59.195312 C 15.898438 59.222656 16.089844 59.238281 16.285156 59.25 L 16.191406 74.453125 L 11.398438 74.453125 Z M 21.613281 74.453125 L 16.976562 74.453125 L 17.070312 59.238281 C 17.152344 59.230469 17.230469 59.226562 17.308594 59.214844 Z M 21.613281 74.453125 " fill-opacity="1" fill-rule="nonzero"/></g><path fill="#ffffff" d="M 37.023438 59.257812 L 40.671875 59.257812 L 40.671875 92.523438 L 37.023438 92.523438 Z M 37.023438 59.257812 " fill-opacity="1" fill-rule="nonzero"/><path fill="#ffffff" d="M 63.214844 59.257812 L 66.863281 59.257812 L 66.863281 92.523438 L 63.214844 92.523438 Z M 63.214844 59.257812 " fill-opacity="1" fill-rule="nonzero"/><g clip-path="url(#5dd5b6d5a9)"><path fill="#ffffff" d="M 53.710938 41.878906 C 53.957031 41.808594 54.195312 41.722656 54.429688 41.625 C 54.664062 41.527344 54.890625 41.414062 55.113281 41.289062 C 55.332031 41.164062 55.546875 41.023438 55.75 40.871094 C 55.953125 40.722656 56.148438 40.558594 56.335938 40.382812 C 56.519531 40.210938 56.695312 40.027344 56.855469 39.832031 C 57.019531 39.636719 57.171875 39.433594 57.308594 39.21875 C 57.449219 39.003906 57.574219 38.785156 57.6875 38.558594 C 57.800781 38.328125 57.898438 38.09375 57.984375 37.855469 C 58.070312 37.617188 58.140625 37.371094 58.195312 37.125 C 58.25 36.875 58.292969 36.625 58.316406 36.371094 C 58.34375 36.121094 58.355469 35.867188 58.347656 35.613281 C 58.34375 35.359375 58.324219 35.105469 58.292969 34.851562 C 58.257812 34.601562 58.207031 34.351562 58.144531 34.105469 C 58.082031 33.859375 58 33.617188 57.910156 33.382812 C 57.816406 33.144531 57.710938 32.914062 57.589844 32.691406 C 57.46875 32.464844 57.335938 32.25 57.191406 32.042969 C 57.046875 31.832031 56.886719 31.636719 56.71875 31.445312 C 56.546875 31.257812 56.367188 31.078125 56.175781 30.910156 C 55.988281 30.742188 55.785156 30.585938 55.578125 30.441406 C 55.367188 30.296875 55.152344 30.164062 54.925781 30.046875 C 54.699219 29.929688 54.46875 29.824219 54.230469 29.734375 C 53.996094 29.640625 53.753906 29.566406 53.503906 29.503906 C 53.257812 29.441406 53.011719 29.394531 52.757812 29.363281 C 52.503906 29.332031 52.253906 29.3125 52 29.3125 C 51.742188 29.308594 51.492188 29.320312 51.238281 29.347656 C 50.984375 29.378906 50.734375 29.421875 50.488281 29.476562 C 50.238281 29.535156 49.996094 29.609375 49.757812 29.695312 C 49.519531 29.78125 49.285156 29.882812 49.058594 29.996094 C 48.832031 30.109375 48.613281 30.238281 48.398438 30.378906 C 48.1875 30.519531 47.984375 30.671875 47.792969 30.835938 C 47.597656 31 47.414062 31.175781 47.242188 31.363281 C 47.070312 31.550781 46.90625 31.746094 46.757812 31.949219 C 46.609375 32.15625 46.472656 32.371094 46.347656 32.59375 C 46.222656 32.8125 46.113281 33.042969 46.015625 33.277344 C 45.921875 33.511719 45.835938 33.753906 45.769531 33.996094 C 45.699219 34.242188 45.648438 34.492188 45.609375 34.742188 C 45.570312 34.992188 45.546875 35.246094 45.539062 35.5 C 45.527344 35.753906 45.535156 36.007812 45.558594 36.261719 C 45.578125 36.515625 45.613281 36.765625 45.667969 37.015625 C 45.71875 37.265625 45.785156 37.507812 45.863281 37.75 C 45.945312 37.992188 46.039062 38.226562 46.148438 38.457031 C 46.257812 38.6875 46.378906 38.910156 46.511719 39.125 C 46.648438 39.339844 46.796875 39.546875 46.957031 39.742188 C 47.117188 39.941406 47.285156 40.128906 47.46875 40.308594 C 47.648438 40.484375 47.84375 40.652344 48.042969 40.804688 C 48.246094 40.960938 48.457031 41.101562 48.675781 41.230469 C 48.894531 41.359375 49.121094 41.476562 49.351562 41.582031 C 49.585938 41.683594 49.820312 41.773438 50.066406 41.847656 L 50.066406 96.28125 L 43.65625 96.28125 L 43.65625 99.707031 L 60.230469 99.707031 L 60.230469 96.28125 L 53.710938 96.28125 Z M 53.710938 41.878906 " fill-opacity="1" fill-rule="nonzero"/></g></g></g></svg>