<svg xmlns="http://www.w3.org/2000/svg" xmlns:xlink="http://www.w3.org/1999/xlink" width="500" zoomAndPan="magnify" viewBox="0 0 375 187.499995" height="250" preserveAspectRatio="xMidYMid meet" version="1.0"><defs><g/><clipPath id="7302fee3d2"><path d="M 0.5 0 L 374.5 0 L 374.5 187 L 0.5 187 Z M 0.5 0 " clip-rule="nonzero"/></clipPath><clipPath id="bebbe11248"><path d="M 101.75 0.699219 L 292.296875 0.699219 L 292.296875 113.835938 L 101.75 113.835938 Z M 101.75 0.699219 " clip-rule="nonzero"/></clipPath><clipPath id="a0499f5d70"><path d="M 0.75 0.699219 L 191.296875 0.699219 L 191.296875 113.835938 L 0.75 113.835938 Z M 0.75 0.699219 " clip-rule="nonzero"/></clipPath><clipPath id="b00a007802"><rect x="0" width="192" y="0" height="114"/></clipPath><clipPath id="69b7296bc9"><path d="M 7 122 L 291 122 L 291 150.988281 L 7 150.988281 Z M 7 122 " clip-rule="nonzero"/></clipPath><clipPath id="22ec4e74f7"><path d="M 0.609375 23 L 283.773438 23 L 283.773438 26 L 0.609375 26 Z M 0.609375 23 " clip-rule="nonzero"/></clipPath><clipPath id="379157bc6b"><rect x="0" width="284" y="0" height="29"/></clipPath><clipPath id="b9f09b4c0a"><path d="M 0.703125 0.699219 L 92.699219 0.699219 L 92.699219 113.835938 L 0.703125 113.835938 Z M 0.703125 0.699219 " clip-rule="nonzero"/></clipPath><clipPath id="2228854105"><path d="M 0.703125 0.699219 L 92.699219 0.699219 L 92.699219 113.835938 L 0.703125 113.835938 Z M 0.703125 0.699219 " clip-rule="nonzero"/></clipPath><clipPath id="d35e8e26ec"><rect x="0" width="93" y="0" height="114"/></clipPath><clipPath id="73563a80b4"><path d="M 51 40 L 84.835938 40 L 84.835938 83 L 51 83 Z M 51 40 " clip-rule="nonzero"/></clipPath><clipPath id="0f052996d9"><path d="M 8.484375 40 L 43 40 L 43 83 L 8.484375 83 Z M 8.484375 40 " clip-rule="nonzero"/></clipPath><clipPath id="8d47a2a9b0"><path d="M 39 26.042969 L 55 26.042969 L 55 88.980469 L 39 88.980469 Z M 39 26.042969 " clip-rule="nonzero"/></clipPath><clipPath id="e94006fb22"><rect x="0" width="130" y="0" height="10"/></clipPath><clipPath id="f2911776a3"><rect x="0" width="293" y="0" height="151"/></clipPath></defs><g clip-path="url(#7302fee3d2)"><path fill="#ffffff" d="M 0.5 0 L 374.5 0 L 374.5 187 L 0.5 187 Z M 0.5 0 " fill-opacity="1" fill-rule="nonzero"/><path fill="#ffffff" d="M 0.5 0 L 374.5 0 L 374.5 187 L 0.5 187 Z M 0.5 0 " fill-opacity="1" fill-rule="nonzero"/></g><g transform="matrix(1, 0, 0, 1, 41, 18)"><g clip-path="url(#f2911776a3)"><g clip-path="url(#bebbe11248)"><g transform="matrix(1, 0, 0, 1, 101, -0.000000000000003553)"><g clip-path="url(#b00a007802)"><g clip-path="url(#a0499f5d70)"><path fill="#0284c7" d="M 0.75 0.699219 L 191.226562 0.699219 L 191.226562 113.835938 L 0.75 113.835938 Z M 0.75 0.699219 " fill-opacity="1" fill-rule="nonzero"/></g></g></g></g><g fill="#ffffff" fill-opacity="1"><g transform="translate(128.8837, 77.262583)"><g><path d="M 7.3125 -41.359375 L 2.359375 -42.15625 L 2.359375 -46 L 35.34375 -46 L 36.15625 -35.59375 L 31.8125 -35.59375 L 29.78125 -41.71875 L 16.40625 -42.28125 L 16.40625 -25.625 L 25.015625 -25.8125 L 26 -30.890625 L 29.96875 -30.890625 L 29.96875 -15.90625 L 26 -15.90625 L 25.015625 -21.234375 L 16.40625 -21.421875 L 16.40625 -3.96875 L 31.390625 -4.703125 L 34.984375 -12.625 L 39.625 -11.328125 L 38.015625 0 L 2.421875 0 L 2.421875 -3.71875 L 7.3125 -4.328125 Z M 7.3125 -41.359375 "/></g></g></g><g fill="#ffffff" fill-opacity="1"><g transform="translate(172.528413, 77.262583)"><g><path d="M 23.890625 0.6875 C 19.359375 0.6875 15.453125 -0.3125 12.171875 -2.3125 C 8.890625 -4.320312 6.398438 -7.078125 4.703125 -10.578125 C 3.015625 -14.085938 2.171875 -18.050781 2.171875 -22.46875 C 2.171875 -27.550781 3.148438 -31.90625 5.109375 -35.53125 C 7.066406 -39.164062 9.835938 -41.910156 13.421875 -43.765625 C 17.015625 -45.617188 21.207031 -46.546875 26 -46.546875 C 30.5 -46.546875 35.554688 -45.910156 41.171875 -44.640625 L 40.484375 -33.125 L 34.234375 -33.125 L 32.5625 -41.046875 C 32.144531 -41.453125 31.359375 -41.832031 30.203125 -42.1875 C 29.054688 -42.539062 27.550781 -42.71875 25.6875 -42.71875 C 21.644531 -42.71875 18.46875 -41.078125 16.15625 -37.796875 C 13.84375 -34.515625 12.6875 -29.78125 12.6875 -23.59375 C 12.6875 -17.519531 13.675781 -12.613281 15.65625 -8.875 C 17.644531 -5.144531 20.660156 -3.28125 24.703125 -3.28125 C 26.347656 -3.28125 27.894531 -3.484375 29.34375 -3.890625 C 30.789062 -4.304688 31.882812 -4.847656 32.625 -5.515625 L 32.625 -18.8125 L 26.0625 -19.4375 L 26.0625 -23.59375 L 44.875 -23.59375 L 44.875 -19.4375 L 41.59375 -18.875 L 41.59375 -2.46875 C 40.726562 -2.4375 39.160156 -2.085938 36.890625 -1.421875 C 34.253906 -0.722656 31.992188 -0.195312 30.109375 0.15625 C 28.234375 0.507812 26.160156 0.6875 23.890625 0.6875 Z M 23.890625 0.6875 "/></g></g></g><g fill="#ffffff" fill-opacity="1"><g transform="translate(221.682886, 77.262583)"><g><path d="M 16.90625 -46.25 L 26.375 -46.25 L 40.671875 -4.328125 L 44.265625 -3.71875 L 44.265625 0 L 26 0 L 26 -3.71875 L 30.640625 -4.328125 L 28.234375 -12.375 L 12.203125 -12.375 L 9.78125 -4.265625 L 14.796875 -3.71875 L 14.796875 0 L -0.984375 0 L -1.046875 -3.71875 L 2.65625 -4.328125 Z M 21.171875 -35.78125 L 20.0625 -40.609375 L 18.875 -35.71875 L 13.375 -16.71875 L 26.984375 -16.71875 Z M 21.171875 -35.78125 "/></g></g></g><g clip-path="url(#69b7296bc9)"><g transform="matrix(1, 0, 0, 1, 7, 122)"><g clip-path="url(#379157bc6b)"><g clip-path="url(#22ec4e74f7)"><path fill="#0284c7" d="M 0.953125 23.804688 L 283.398438 23.804688 L 283.398438 25.992188 L 0.953125 25.992188 Z M 0.953125 23.804688 " fill-opacity="1" fill-rule="nonzero"/></g><g fill="#0284c7" fill-opacity="1"><g transform="translate(0.95414, 22.34785)"><g><path d="M 2.65625 -14.921875 L 0.9375 -15.21875 L 0.9375 -16.59375 L 8.09375 -16.59375 L 8.09375 -15.21875 L 5.9375 -14.921875 L 5.9375 -1.59375 L 10.71875 -1.78125 L 12.125 -5.96875 L 13.9375 -5.71875 L 13.25 0 L 0.890625 0 L 0.890625 -1.34375 L 2.65625 -1.5625 Z M 2.65625 -14.921875 "/></g></g></g><g fill="#0284c7" fill-opacity="1"><g transform="translate(20.577346, 22.34785)"><g><path d="M 6.09375 -16.6875 L 9.515625 -16.6875 L 14.6875 -1.5625 L 15.96875 -1.34375 L 15.96875 0 L 9.390625 0 L 9.390625 -1.34375 L 11.0625 -1.5625 L 10.1875 -4.46875 L 4.40625 -4.46875 L 3.53125 -1.546875 L 5.34375 -1.34375 L 5.34375 0 L -0.359375 0 L -0.375 -1.34375 L 0.953125 -1.5625 Z M 7.640625 -12.921875 L 7.234375 -14.65625 L 6.8125 -12.890625 L 4.828125 -6.03125 L 9.734375 -6.03125 Z M 7.640625 -12.921875 "/></g></g></g><g fill="#0284c7" fill-opacity="1"><g transform="translate(41.630815, 22.34785)"><g><path d="M -0.40625 -16.59375 L 6.296875 -16.59375 L 6.296875 -15.21875 L 4.359375 -14.921875 L 7.171875 -4.84375 L 7.6875 -2.375 L 8.203125 -4.84375 L 10.59375 -13.03125 L 9.96875 -14.921875 L 8.484375 -15.21875 L 8.484375 -16.59375 L 15.484375 -16.59375 L 15.484375 -15.21875 L 13.34375 -14.921875 L 16.125 -4.84375 L 16.734375 -2.171875 L 17.203125 -4.84375 L 19.75 -14.921875 L 17.734375 -15.21875 L 17.734375 -16.59375 L 23.125 -16.59375 L 23.125 -15.21875 L 21.703125 -14.921875 L 17.453125 0.109375 L 14.5 0.109375 L 11.421875 -10.328125 L 8.46875 0.109375 L 5.5625 0.109375 L 0.953125 -14.90625 L -0.40625 -15.21875 Z M -0.40625 -16.59375 "/></g></g></g><g fill="#0284c7" fill-opacity="1"><g transform="translate(69.723853, 22.34785)"><g/></g></g><g fill="#0284c7" fill-opacity="1"><g transform="translate(80.385564, 22.34785)"><g><path d="M 16.734375 -7.703125 L 15.078125 -7.421875 C 15.097656 -6.484375 14.953125 -5.609375 14.640625 -4.796875 C 14.328125 -3.984375 13.914062 -3.300781 13.40625 -2.75 C 13.863281 -2.332031 14.3125 -2.015625 14.75 -1.796875 C 15.195312 -1.578125 15.6875 -1.457031 16.21875 -1.4375 L 16.21875 -0.171875 C 16.070312 -0.0664062 15.78125 0.0078125 15.34375 0.0625 C 14.90625 0.125 14.550781 0.15625 14.28125 0.15625 C 13.695312 0.15625 13.1875 0.078125 12.75 -0.078125 C 12.320312 -0.234375 11.847656 -0.503906 11.328125 -0.890625 C 10.328125 -0.148438 8.960938 0.21875 7.234375 0.21875 C 5.316406 0.21875 3.804688 -0.171875 2.703125 -0.953125 C 1.597656 -1.734375 1.046875 -2.820312 1.046875 -4.21875 C 1.046875 -5.175781 1.363281 -5.992188 2 -6.671875 C 2.644531 -7.359375 3.453125 -7.890625 4.421875 -8.265625 C 3.828125 -9.035156 3.363281 -9.765625 3.03125 -10.453125 C 2.695312 -11.148438 2.53125 -11.90625 2.53125 -12.71875 C 2.53125 -13.457031 2.738281 -14.144531 3.15625 -14.78125 C 3.582031 -15.414062 4.164062 -15.914062 4.90625 -16.28125 C 5.65625 -16.644531 6.476562 -16.828125 7.375 -16.828125 C 8.3125 -16.828125 9.101562 -16.671875 9.75 -16.359375 C 10.394531 -16.054688 10.875 -15.660156 11.1875 -15.171875 C 11.5 -14.679688 11.65625 -14.164062 11.65625 -13.625 C 11.65625 -12.820312 11.507812 -12.132812 11.21875 -11.5625 C 10.9375 -10.988281 10.519531 -10.484375 9.96875 -10.046875 C 9.425781 -9.617188 8.707031 -9.160156 7.8125 -8.671875 C 8.414062 -7.953125 9.113281 -7.144531 9.90625 -6.25 C 10.707031 -5.363281 11.359375 -4.679688 11.859375 -4.203125 L 12.3125 -3.78125 C 12.832031 -4.625 13.09375 -5.671875 13.09375 -6.921875 L 13.078125 -7.421875 L 11.34375 -7.703125 L 11.34375 -9.1875 L 16.734375 -9.1875 Z M 5.46875 -13.234375 C 5.46875 -12.546875 5.617188 -11.910156 5.921875 -11.328125 C 6.234375 -10.742188 6.613281 -10.175781 7.0625 -9.625 C 7.789062 -10.25 8.300781 -10.867188 8.59375 -11.484375 C 8.894531 -12.097656 9.046875 -12.796875 9.046875 -13.578125 C 9.046875 -14.097656 8.921875 -14.578125 8.671875 -15.015625 C 8.421875 -15.460938 7.976562 -15.6875 7.34375 -15.6875 C 6.800781 -15.6875 6.351562 -15.460938 6 -15.015625 C 5.644531 -14.578125 5.46875 -13.984375 5.46875 -13.234375 Z M 7.59375 -1.234375 C 8.625 -1.234375 9.441406 -1.457031 10.046875 -1.90625 C 9.453125 -2.40625 8.820312 -3.03125 8.15625 -3.78125 C 7.488281 -4.539062 6.707031 -5.460938 5.8125 -6.546875 C 5.644531 -6.722656 5.460938 -6.9375 5.265625 -7.1875 C 4.847656 -6.851562 4.503906 -6.453125 4.234375 -5.984375 C 3.972656 -5.523438 3.84375 -5.023438 3.84375 -4.484375 C 3.84375 -3.515625 4.171875 -2.726562 4.828125 -2.125 C 5.492188 -1.53125 6.414062 -1.234375 7.59375 -1.234375 Z M 7.59375 -1.234375 "/></g></g></g><g fill="#0284c7" fill-opacity="1"><g transform="translate(102.779897, 22.34785)"><g/></g></g><g fill="#0284c7" fill-opacity="1"><g transform="translate(113.441608, 22.34785)"><g><path d="M 6.09375 -16.6875 L 9.515625 -16.6875 L 14.6875 -1.5625 L 15.96875 -1.34375 L 15.96875 0 L 9.390625 0 L 9.390625 -1.34375 L 11.0625 -1.5625 L 10.1875 -4.46875 L 4.40625 -4.46875 L 3.53125 -1.546875 L 5.34375 -1.34375 L 5.34375 0 L -0.359375 0 L -0.375 -1.34375 L 0.953125 -1.5625 Z M 7.640625 -12.921875 L 7.234375 -14.65625 L 6.8125 -12.890625 L 4.828125 -6.03125 L 9.734375 -6.03125 Z M 7.640625 -12.921875 "/></g></g></g><g fill="#0284c7" fill-opacity="1"><g transform="translate(134.495077, 22.34785)"><g><path d="M 6.296875 -15.125 L 3.109375 -15.015625 L 2.234375 -10.140625 L 0.359375 -10.140625 L 0.734375 -16.59375 L 15.15625 -16.59375 L 15.421875 -10.140625 L 13.65625 -10.140625 L 12.78125 -15.015625 L 9.625 -15.125 L 9.625 -1.5625 L 12.765625 -1.34375 L 12.765625 0 L 3.4375 0 L 3.4375 -1.34375 L 6.296875 -1.5625 Z M 6.296875 -15.125 "/></g></g></g><g fill="#0284c7" fill-opacity="1"><g transform="translate(155.772025, 22.34785)"><g><path d="M 6.296875 -15.125 L 3.109375 -15.015625 L 2.234375 -10.140625 L 0.359375 -10.140625 L 0.734375 -16.59375 L 15.15625 -16.59375 L 15.421875 -10.140625 L 13.65625 -10.140625 L 12.78125 -15.015625 L 9.625 -15.125 L 9.625 -1.5625 L 12.765625 -1.34375 L 12.765625 0 L 3.4375 0 L 3.4375 -1.34375 L 6.296875 -1.5625 Z M 6.296875 -15.125 "/></g></g></g><g fill="#0284c7" fill-opacity="1"><g transform="translate(177.048973, 22.34785)"><g><path d="M 7.9375 0.25 C 5.507812 0.25 3.691406 -0.507812 2.484375 -2.03125 C 1.273438 -3.550781 0.671875 -5.625 0.671875 -8.25 C 0.671875 -9.957031 0.984375 -11.457031 1.609375 -12.75 C 2.242188 -14.050781 3.132812 -15.050781 4.28125 -15.75 C 5.4375 -16.445312 6.757812 -16.796875 8.25 -16.796875 C 10.707031 -16.796875 12.550781 -16.070312 13.78125 -14.625 C 15.007812 -13.175781 15.625 -11.144531 15.625 -8.53125 C 15.625 -6.800781 15.296875 -5.269531 14.640625 -3.9375 C 13.992188 -2.601562 13.085938 -1.570312 11.921875 -0.84375 C 10.765625 -0.113281 9.4375 0.25 7.9375 0.25 Z M 8.15625 -15.4375 C 6.9375 -15.4375 5.984375 -14.832031 5.296875 -13.625 C 4.609375 -12.414062 4.265625 -10.628906 4.265625 -8.265625 C 4.265625 -5.929688 4.59375 -4.15625 5.25 -2.9375 C 5.914062 -1.71875 6.867188 -1.109375 8.109375 -1.109375 C 9.316406 -1.109375 10.257812 -1.742188 10.9375 -3.015625 C 11.625 -4.296875 11.96875 -6.132812 11.96875 -8.53125 C 11.96875 -10.851562 11.640625 -12.582031 10.984375 -13.71875 C 10.335938 -14.863281 9.394531 -15.4375 8.15625 -15.4375 Z M 8.15625 -15.4375 "/></g></g></g><g fill="#0284c7" fill-opacity="1"><g transform="translate(198.683471, 22.34785)"><g><path d="M 0.875 -1.34375 L 2.640625 -1.5625 L 2.640625 -14.921875 L 0.953125 -15.234375 L 0.953125 -16.59375 L 4.203125 -16.59375 C 4.484375 -16.59375 4.796875 -16.597656 5.140625 -16.609375 C 5.484375 -16.628906 5.742188 -16.648438 5.921875 -16.671875 C 6.691406 -16.722656 7.332031 -16.75 7.84375 -16.75 C 9.375 -16.75 10.601562 -16.59375 11.53125 -16.28125 C 12.457031 -15.96875 13.128906 -15.488281 13.546875 -14.84375 C 13.960938 -14.207031 14.171875 -13.367188 14.171875 -12.328125 C 14.171875 -11.304688 13.894531 -10.351562 13.34375 -9.46875 C 12.789062 -8.59375 11.992188 -7.988281 10.953125 -7.65625 C 11.546875 -7.40625 12.070312 -6.941406 12.53125 -6.265625 C 13 -5.597656 13.492188 -4.734375 14.015625 -3.671875 C 14.378906 -2.929688 14.660156 -2.398438 14.859375 -2.078125 C 15.066406 -1.765625 15.269531 -1.585938 15.46875 -1.546875 L 16.203125 -1.3125 L 16.203125 0 L 12.40625 0 C 12.164062 0 11.914062 -0.238281 11.65625 -0.71875 C 11.394531 -1.207031 11.054688 -1.972656 10.640625 -3.015625 C 10.140625 -4.234375 9.710938 -5.1875 9.359375 -5.875 C 9.003906 -6.5625 8.625 -6.988281 8.21875 -7.15625 L 5.921875 -7.15625 L 5.921875 -1.5625 L 7.984375 -1.34375 L 7.984375 0 L 0.875 0 Z M 7.984375 -8.515625 C 8.828125 -8.515625 9.488281 -8.816406 9.96875 -9.421875 C 10.445312 -10.035156 10.6875 -10.953125 10.6875 -12.171875 C 10.6875 -13.265625 10.445312 -14.070312 9.96875 -14.59375 C 9.5 -15.113281 8.691406 -15.375 7.546875 -15.375 C 7.128906 -15.375 6.773438 -15.351562 6.484375 -15.3125 C 6.203125 -15.28125 6.015625 -15.265625 5.921875 -15.265625 L 5.921875 -8.5625 C 6.097656 -8.53125 6.53125 -8.515625 7.21875 -8.515625 Z M 7.984375 -8.515625 "/></g></g></g><g fill="#0284c7" fill-opacity="1"><g transform="translate(220.161552, 22.34785)"><g><path d="M 2.65625 -14.921875 L 0.890625 -15.21875 L 0.890625 -16.59375 L 5.96875 -16.59375 L 12.625 -6.546875 L 13.875 -4 L 13.875 -14.921875 L 11.953125 -15.21875 L 11.953125 -16.59375 L 17.5 -16.59375 L 17.5 -15.21875 L 15.78125 -14.921875 L 15.78125 0 L 13.078125 0 L 6.125 -10.5625 L 4.5625 -13.515625 L 4.5625 -1.5625 L 6.8125 -1.34375 L 6.8125 0 L 0.890625 0 L 0.890625 -1.34375 L 2.65625 -1.5625 Z M 2.65625 -14.921875 "/></g></g></g><g fill="#0284c7" fill-opacity="1"><g transform="translate(243.47216, 22.34785)"><g><path d="M 2.640625 -14.921875 L 0.84375 -15.21875 L 0.84375 -16.59375 L 12.765625 -16.59375 L 13.046875 -12.84375 L 11.484375 -12.84375 L 10.75 -15.0625 L 5.921875 -15.265625 L 5.921875 -9.25 L 9.03125 -9.3125 L 9.390625 -11.15625 L 10.8125 -11.15625 L 10.8125 -5.75 L 9.390625 -5.75 L 9.03125 -7.65625 L 5.921875 -7.734375 L 5.921875 -1.4375 L 11.328125 -1.703125 L 12.625 -4.5625 L 14.296875 -4.09375 L 13.71875 0 L 0.875 0 L 0.875 -1.34375 L 2.640625 -1.5625 Z M 2.640625 -14.921875 "/></g></g></g><g fill="#0284c7" fill-opacity="1"><g transform="translate(263.475262, 22.34785)"><g><path d="M 5.703125 -6.59375 L 0.921875 -14.921875 L -0.359375 -15.21875 L -0.359375 -16.59375 L 6.21875 -16.59375 L 6.21875 -15.21875 L 4.625 -14.921875 L 7.421875 -9.453125 L 8.046875 -7.90625 L 8.6875 -9.453125 L 11.265625 -14.921875 L 9.515625 -15.21875 L 9.515625 -16.59375 L 14.96875 -16.59375 L 14.96875 -15.21875 L 13.578125 -14.953125 L 9.140625 -6.609375 L 9.140625 -1.5625 L 11.578125 -1.34375 L 11.578125 0 L 3.328125 0 L 3.328125 -1.34375 L 5.703125 -1.5625 Z M 5.703125 -6.59375 "/></g></g></g></g></g></g><g clip-path="url(#b9f09b4c0a)"><g transform="matrix(1, 0, 0, 1, -0.000000000000007105, -0.000000000000003553)"><g clip-path="url(#d35e8e26ec)"><g clip-path="url(#2228854105)"><path fill="#0284c7" d="M 0.703125 0.699219 L 92.699219 0.699219 L 92.699219 113.894531 L 0.703125 113.894531 Z M 0.703125 0.699219 " fill-opacity="1" fill-rule="nonzero"/></g></g></g></g><g clip-path="url(#73563a80b4)"><path fill="#ffffff" d="M 83.25 66.089844 L 79.398438 52.457031 C 79.796875 52.359375 80.179688 52.222656 80.550781 52.042969 C 80.917969 51.863281 81.265625 51.644531 81.585938 51.390625 C 81.90625 51.136719 82.199219 50.851562 82.457031 50.535156 C 82.71875 50.214844 82.941406 49.875 83.128906 49.507812 C 83.3125 49.140625 83.457031 48.761719 83.5625 48.363281 C 83.664062 47.964844 83.722656 47.5625 83.742188 47.152344 C 83.757812 46.742188 83.726562 46.335938 83.65625 45.933594 C 83.582031 45.527344 83.46875 45.136719 83.3125 44.757812 C 83.15625 44.378906 82.960938 44.019531 82.726562 43.683594 C 82.492188 43.347656 82.222656 43.039062 81.921875 42.761719 C 81.621094 42.480469 81.292969 42.238281 80.9375 42.03125 C 80.585938 41.824219 80.214844 41.65625 79.824219 41.527344 C 79.433594 41.398438 79.035156 41.316406 78.625 41.273438 C 78.21875 41.234375 77.808594 41.238281 77.402344 41.285156 C 76.992188 41.332031 76.597656 41.421875 76.207031 41.558594 C 75.820312 41.691406 75.449219 41.863281 75.101562 42.078125 C 74.75 42.292969 74.425781 42.539062 74.128906 42.824219 C 73.832031 43.109375 73.570312 43.417969 73.339844 43.761719 C 73.113281 44.101562 72.921875 44.460938 72.773438 44.84375 C 72.621094 45.226562 72.511719 45.617188 72.449219 46.023438 C 72.382812 46.429688 72.359375 46.835938 72.382812 47.246094 C 72.40625 47.65625 72.472656 48.058594 72.582031 48.453125 C 72.691406 48.847656 72.84375 49.226562 73.035156 49.589844 C 73.226562 49.953125 73.453125 50.292969 73.71875 50.605469 C 73.574219 50.609375 73.433594 50.609375 73.304688 50.609375 C 67.046875 50.566406 64.058594 45.832031 54.492188 41.789062 C 52.996094 41.160156 51.757812 40.71875 51.011719 40.46875 L 51.011719 82.113281 L 54.050781 82.113281 L 54.050781 46.105469 C 63.625 48.773438 66.898438 53.070312 72.230469 52.375 C 73.140625 52.25 74.015625 52.003906 74.851562 51.625 C 75.390625 51.996094 75.972656 52.261719 76.601562 52.429688 L 72.742188 66.089844 L 71.199219 66.089844 L 71.199219 66.140625 C 71.203125 66.585938 71.25 67.027344 71.34375 67.46875 C 71.433594 67.90625 71.566406 68.328125 71.742188 68.742188 C 71.914062 69.152344 72.128906 69.546875 72.378906 69.914062 C 72.628906 70.285156 72.914062 70.628906 73.234375 70.941406 C 73.550781 71.257812 73.894531 71.539062 74.269531 71.785156 C 74.640625 72.03125 75.035156 72.242188 75.449219 72.410156 C 75.863281 72.582031 76.289062 72.710938 76.726562 72.796875 C 77.167969 72.882812 77.609375 72.925781 78.058594 72.925781 C 78.503906 72.925781 78.949219 72.882812 79.386719 72.796875 C 79.828125 72.710938 80.253906 72.582031 80.667969 72.410156 C 81.078125 72.242188 81.472656 72.03125 81.847656 71.785156 C 82.21875 71.539062 82.566406 71.257812 82.882812 70.941406 C 83.199219 70.628906 83.484375 70.285156 83.738281 69.914062 C 83.988281 69.546875 84.199219 69.152344 84.375 68.742188 C 84.550781 68.328125 84.683594 67.90625 84.773438 67.46875 C 84.863281 67.027344 84.914062 66.585938 84.917969 66.140625 L 84.917969 66.089844 Z M 82.523438 66.089844 L 78.414062 66.089844 L 78.496094 52.601562 C 78.566406 52.59375 78.640625 52.589844 78.710938 52.578125 Z M 77.285156 52.5625 C 77.457031 52.585938 77.625 52.601562 77.796875 52.609375 L 77.714844 66.089844 L 73.46875 66.089844 Z M 77.285156 52.5625 " fill-opacity="1" fill-rule="nonzero"/></g><g clip-path="url(#0f052996d9)"><path fill="#ffffff" d="M 18.550781 51.625 C 19.386719 52.003906 20.261719 52.25 21.171875 52.375 C 26.5 53.070312 29.777344 48.773438 39.347656 46.105469 L 39.347656 82.113281 L 42.386719 82.113281 L 42.386719 40.46875 C 41.640625 40.71875 40.398438 41.15625 38.910156 41.789062 C 29.347656 45.832031 26.355469 50.566406 20.097656 50.609375 C 19.96875 50.609375 19.828125 50.609375 19.683594 50.605469 C 19.945312 50.292969 20.171875 49.957031 20.363281 49.59375 C 20.554688 49.234375 20.707031 48.855469 20.816406 48.464844 C 20.925781 48.070312 20.992188 47.671875 21.015625 47.261719 C 21.039062 46.855469 21.019531 46.449219 20.953125 46.046875 C 20.890625 45.640625 20.785156 45.25 20.636719 44.871094 C 20.488281 44.488281 20.300781 44.128906 20.074219 43.789062 C 19.847656 43.449219 19.589844 43.136719 19.292969 42.851562 C 19 42.566406 18.679688 42.320312 18.332031 42.105469 C 17.984375 41.890625 17.621094 41.714844 17.234375 41.578125 C 16.851562 41.441406 16.453125 41.347656 16.050781 41.296875 C 15.644531 41.246094 15.238281 41.238281 14.832031 41.277344 C 14.425781 41.3125 14.027344 41.390625 13.636719 41.515625 C 13.246094 41.636719 12.875 41.800781 12.519531 42.003906 C 12.164062 42.207031 11.835938 42.445312 11.535156 42.71875 C 11.230469 42.992188 10.960938 43.292969 10.722656 43.625 C 10.484375 43.957031 10.285156 44.3125 10.125 44.6875 C 9.960938 45.0625 9.839844 45.449219 9.765625 45.851562 C 9.6875 46.253906 9.652344 46.65625 9.660156 47.066406 C 9.671875 47.472656 9.722656 47.875 9.820312 48.273438 C 9.914062 48.671875 10.050781 49.050781 10.230469 49.417969 C 10.410156 49.785156 10.625 50.132812 10.878906 50.453125 C 11.132812 50.773438 11.414062 51.0625 11.730469 51.324219 C 12.046875 51.582031 12.386719 51.804688 12.75 51.992188 C 13.113281 52.179688 13.492188 52.324219 13.886719 52.429688 L 10.027344 66.089844 L 8.484375 66.089844 L 8.484375 66.140625 C 8.488281 66.585938 8.535156 67.027344 8.628906 67.46875 C 8.71875 67.90625 8.851562 68.328125 9.027344 68.742188 C 9.203125 69.152344 9.414062 69.546875 9.664062 69.914062 C 9.917969 70.285156 10.199219 70.628906 10.519531 70.941406 C 10.835938 71.257812 11.183594 71.539062 11.554688 71.785156 C 11.929688 72.03125 12.320312 72.242188 12.734375 72.410156 C 13.148438 72.582031 13.574219 72.710938 14.015625 72.796875 C 14.453125 72.882812 14.894531 72.925781 15.34375 72.925781 C 15.792969 72.925781 16.234375 72.882812 16.671875 72.796875 C 17.113281 72.710938 17.539062 72.582031 17.953125 72.410156 C 18.367188 72.242188 18.757812 72.03125 19.132812 71.785156 C 19.503906 71.539062 19.851562 71.257812 20.167969 70.941406 C 20.488281 70.628906 20.769531 70.285156 21.023438 69.914062 C 21.273438 69.546875 21.484375 69.152344 21.660156 68.742188 C 21.835938 68.328125 21.96875 67.90625 22.058594 67.46875 C 22.152344 67.027344 22.199219 66.585938 22.203125 66.140625 L 22.203125 66.089844 L 20.535156 66.089844 L 16.683594 52.457031 C 17.359375 52.296875 17.980469 52.019531 18.550781 51.625 Z M 14.574219 52.566406 C 14.742188 52.585938 14.910156 52.601562 15.082031 52.613281 L 15 66.089844 L 10.753906 66.089844 Z M 19.808594 66.09375 L 15.699219 66.09375 L 15.78125 52.601562 C 15.851562 52.597656 15.921875 52.589844 15.992188 52.582031 Z M 19.808594 66.09375 " fill-opacity="1" fill-rule="nonzero"/></g><path fill="#ffffff" d="M 33.472656 52.617188 L 36.707031 52.617188 L 36.707031 82.113281 L 33.472656 82.113281 Z M 33.472656 52.617188 " fill-opacity="1" fill-rule="nonzero"/><path fill="#ffffff" d="M 56.695312 52.617188 L 59.929688 52.617188 L 59.929688 82.113281 L 56.695312 82.113281 Z M 56.695312 52.617188 " fill-opacity="1" fill-rule="nonzero"/><g clip-path="url(#8d47a2a9b0)"><path fill="#ffffff" d="M 48.269531 37.210938 C 48.703125 37.085938 49.117188 36.910156 49.511719 36.6875 C 49.902344 36.460938 50.265625 36.195312 50.59375 35.886719 C 50.925781 35.574219 51.210938 35.230469 51.460938 34.851562 C 51.707031 34.472656 51.90625 34.070312 52.054688 33.644531 C 52.207031 33.214844 52.304688 32.777344 52.351562 32.328125 C 52.398438 31.878906 52.390625 31.429688 52.328125 30.980469 C 52.269531 30.53125 52.15625 30.097656 51.992188 29.675781 C 51.824219 29.253906 51.613281 28.859375 51.351562 28.488281 C 51.09375 28.117188 50.792969 27.78125 50.453125 27.484375 C 50.117188 27.183594 49.746094 26.929688 49.34375 26.71875 C 48.945312 26.507812 48.523438 26.347656 48.085938 26.238281 C 47.648438 26.128906 47.203125 26.070312 46.75 26.066406 C 46.296875 26.0625 45.851562 26.113281 45.410156 26.214844 C 44.96875 26.316406 44.546875 26.46875 44.144531 26.671875 C 43.738281 26.878906 43.363281 27.125 43.019531 27.417969 C 42.675781 27.710938 42.371094 28.042969 42.101562 28.40625 C 41.835938 28.773438 41.617188 29.164062 41.445312 29.582031 C 41.273438 30.003906 41.152344 30.433594 41.082031 30.882812 C 41.015625 31.328125 41 31.777344 41.039062 32.230469 C 41.078125 32.679688 41.167969 33.121094 41.308594 33.550781 C 41.453125 33.976562 41.644531 34.382812 41.886719 34.765625 C 42.125 35.152344 42.410156 35.5 42.734375 35.816406 C 43.058594 36.132812 43.414062 36.40625 43.800781 36.636719 C 44.191406 36.867188 44.601562 37.046875 45.035156 37.179688 L 45.035156 85.445312 L 39.351562 85.445312 L 39.351562 88.484375 L 54.050781 88.484375 L 54.050781 85.445312 L 48.269531 85.445312 Z M 48.269531 37.210938 " fill-opacity="1" fill-rule="nonzero"/></g><g transform="matrix(1, 0, 0, 1, 133, 89)"><g clip-path="url(#e94006fb22)"><g fill="#ffffff" fill-opacity="1"><g transform="translate(1.472521, 6.777506)"><g><path d="M 0.8125 -4.59375 L 0.265625 -4.6875 L 0.265625 -5.109375 L 3.921875 -5.109375 L 4.015625 -3.953125 L 3.53125 -3.953125 L 3.3125 -4.640625 L 1.828125 -4.703125 L 1.828125 -2.84375 L 2.78125 -2.859375 L 2.890625 -3.4375 L 3.328125 -3.4375 L 3.328125 -1.765625 L 2.890625 -1.765625 L 2.78125 -2.359375 L 1.828125 -2.375 L 1.828125 -0.4375 L 3.484375 -0.515625 L 3.890625 -1.40625 L 4.40625 -1.265625 L 4.21875 0 L 0.265625 0 L 0.265625 -0.40625 L 0.8125 -0.484375 Z M 0.8125 -4.59375 "/></g></g></g><g fill="#ffffff" fill-opacity="1"><g transform="translate(8.385545, 6.777506)"><g><path d="M 1.0625 -3.328125 L 0.90625 -2.65625 L 0.40625 -2.65625 L 0.40625 -3.828125 L 3.4375 -3.828125 L 3.609375 -3.46875 L 1.78125 -0.921875 L 1.296875 -0.4375 L 2.828125 -0.515625 L 3.15625 -1.296875 L 3.625 -1.25 L 3.515625 0 L 0.328125 0 L 0.15625 -0.375 L 2.03125 -2.859375 L 2.53125 -3.375 Z M 1.0625 -3.328125 "/></g></g></g><g fill="#ffffff" fill-opacity="1"><g transform="translate(14.631336, 6.777506)"><g><path d="M 1.96875 1.859375 C 1.351562 1.859375 0.910156 1.757812 0.640625 1.5625 C 0.367188 1.375 0.234375 1.113281 0.234375 0.78125 C 0.234375 0.59375 0.296875 0.414062 0.421875 0.25 C 0.546875 0.0820312 0.695312 -0.0390625 0.875 -0.125 C 0.664062 -0.25 0.5625 -0.445312 0.5625 -0.71875 C 0.5625 -0.875 0.609375 -1.019531 0.703125 -1.15625 C 0.804688 -1.300781 0.9375 -1.410156 1.09375 -1.484375 C 0.84375 -1.578125 0.65625 -1.722656 0.53125 -1.921875 C 0.40625 -2.117188 0.34375 -2.351562 0.34375 -2.625 C 0.34375 -2.882812 0.421875 -3.113281 0.578125 -3.3125 C 0.734375 -3.507812 0.941406 -3.660156 1.203125 -3.765625 C 1.460938 -3.867188 1.742188 -3.921875 2.046875 -3.921875 C 2.578125 -3.921875 2.972656 -3.816406 3.234375 -3.609375 C 3.296875 -3.679688 3.394531 -3.753906 3.53125 -3.828125 C 3.675781 -3.898438 3.828125 -3.9375 3.984375 -3.9375 L 4.21875 -3.9375 L 4.21875 -3.1875 L 3.515625 -3.1875 C 3.578125 -3.039062 3.609375 -2.882812 3.609375 -2.71875 C 3.617188 -2.300781 3.472656 -1.96875 3.171875 -1.71875 C 2.878906 -1.46875 2.472656 -1.34375 1.953125 -1.34375 C 1.734375 -1.34375 1.550781 -1.359375 1.40625 -1.390625 C 1.363281 -1.328125 1.328125 -1.257812 1.296875 -1.1875 C 1.273438 -1.125 1.265625 -1.070312 1.265625 -1.03125 C 1.265625 -0.875 1.316406 -0.765625 1.421875 -0.703125 C 1.535156 -0.648438 1.726562 -0.625 2 -0.625 L 2.75 -0.625 C 3.675781 -0.625 4.140625 -0.285156 4.140625 0.390625 C 4.140625 0.671875 4.039062 0.921875 3.84375 1.140625 C 3.644531 1.367188 3.375 1.546875 3.03125 1.671875 C 2.695312 1.796875 2.34375 1.859375 1.96875 1.859375 Z M 2.015625 -1.765625 C 2.441406 -1.765625 2.65625 -2.054688 2.65625 -2.640625 C 2.65625 -2.941406 2.601562 -3.160156 2.5 -3.296875 C 2.394531 -3.429688 2.226562 -3.5 2 -3.5 C 1.789062 -3.5 1.625 -3.429688 1.5 -3.296875 C 1.382812 -3.160156 1.328125 -2.953125 1.328125 -2.671875 C 1.328125 -2.066406 1.554688 -1.765625 2.015625 -1.765625 Z M 2.078125 1.375 C 2.367188 1.375 2.617188 1.304688 2.828125 1.171875 C 3.035156 1.035156 3.140625 0.84375 3.140625 0.59375 C 3.140625 0.394531 3.085938 0.25 2.984375 0.15625 C 2.878906 0.0703125 2.695312 0.03125 2.4375 0.03125 L 1.6875 0.03125 C 1.570312 0.03125 1.46875 0.0234375 1.375 0.015625 C 1.25 0.179688 1.1875 0.378906 1.1875 0.609375 C 1.1875 0.859375 1.253906 1.046875 1.390625 1.171875 C 1.523438 1.304688 1.753906 1.375 2.078125 1.375 Z M 2.078125 1.375 "/></g></g></g><g fill="#ffffff" fill-opacity="1"><g transform="translate(21.317359, 6.777506)"><g><path d="M 1.125 -4.453125 C 0.957031 -4.453125 0.828125 -4.5 0.734375 -4.59375 C 0.640625 -4.6875 0.59375 -4.8125 0.59375 -4.96875 C 0.59375 -5.132812 0.644531 -5.273438 0.75 -5.390625 C 0.863281 -5.503906 1.015625 -5.5625 1.203125 -5.5625 C 1.378906 -5.5625 1.515625 -5.507812 1.609375 -5.40625 C 1.710938 -5.3125 1.765625 -5.191406 1.765625 -5.046875 C 1.765625 -4.867188 1.707031 -4.722656 1.59375 -4.609375 C 1.488281 -4.503906 1.335938 -4.453125 1.140625 -4.453125 Z M 0.765625 -3.171875 L 0.28125 -3.296875 L 0.28125 -3.765625 L 1.53125 -3.90625 L 1.546875 -3.90625 L 1.734375 -3.78125 L 1.734375 -0.46875 L 2.203125 -0.40625 L 2.203125 0 L 0.28125 0 L 0.28125 -0.40625 L 0.765625 -0.46875 Z M 0.765625 -3.171875 "/></g></g></g><g fill="#ffffff" fill-opacity="1"><g transform="translate(26.111758, 6.777506)"><g/></g></g><g fill="#ffffff" fill-opacity="1"><g transform="translate(30.149507, 6.777506)"><g><path d="M 2.65625 0.078125 C 2.144531 0.078125 1.707031 -0.03125 1.34375 -0.25 C 0.976562 -0.476562 0.703125 -0.785156 0.515625 -1.171875 C 0.328125 -1.566406 0.234375 -2.007812 0.234375 -2.5 C 0.234375 -3.0625 0.34375 -3.539062 0.5625 -3.9375 C 0.78125 -4.34375 1.085938 -4.648438 1.484375 -4.859375 C 1.890625 -5.066406 2.359375 -5.171875 2.890625 -5.171875 C 3.390625 -5.171875 3.953125 -5.097656 4.578125 -4.953125 L 4.5 -3.671875 L 3.796875 -3.671875 L 3.609375 -4.5625 C 3.566406 -4.601562 3.476562 -4.644531 3.34375 -4.6875 C 3.21875 -4.726562 3.054688 -4.75 2.859375 -4.75 C 2.398438 -4.75 2.039062 -4.566406 1.78125 -4.203125 C 1.53125 -3.835938 1.40625 -3.3125 1.40625 -2.625 C 1.40625 -1.945312 1.515625 -1.398438 1.734375 -0.984375 C 1.953125 -0.566406 2.289062 -0.359375 2.75 -0.359375 C 2.925781 -0.359375 3.09375 -0.378906 3.25 -0.421875 C 3.414062 -0.472656 3.539062 -0.535156 3.625 -0.609375 L 3.625 -2.09375 L 2.890625 -2.15625 L 2.890625 -2.625 L 4.984375 -2.625 L 4.984375 -2.15625 L 4.625 -2.09375 L 4.625 -0.28125 C 4.519531 -0.269531 4.34375 -0.226562 4.09375 -0.15625 C 3.800781 -0.0820312 3.550781 -0.0234375 3.34375 0.015625 C 3.132812 0.0546875 2.90625 0.078125 2.65625 0.078125 Z M 2.65625 0.078125 "/></g></g></g><g fill="#ffffff" fill-opacity="1"><g transform="translate(37.674731, 6.777506)"><g><path d="M 3.40625 0.0625 C 3.257812 0.0625 3.148438 0.03125 3.078125 -0.03125 C 3.015625 -0.09375 2.984375 -0.1875 2.984375 -0.3125 L 2.984375 -0.5 C 2.859375 -0.351562 2.679688 -0.21875 2.453125 -0.09375 C 2.234375 0.0195312 2.007812 0.078125 1.78125 0.078125 C 1.34375 0.078125 1.03125 -0.0351562 0.84375 -0.265625 C 0.65625 -0.492188 0.5625 -0.867188 0.5625 -1.390625 L 0.5625 -3.328125 L 0.21875 -3.421875 L 0.21875 -3.8125 L 1.375 -3.90625 L 1.390625 -3.90625 L 1.53125 -3.8125 L 1.53125 -1.390625 C 1.53125 -1.054688 1.570312 -0.820312 1.65625 -0.6875 C 1.738281 -0.550781 1.890625 -0.484375 2.109375 -0.484375 C 2.378906 -0.484375 2.628906 -0.585938 2.859375 -0.796875 L 2.859375 -3.328125 L 2.40625 -3.4375 L 2.40625 -3.8125 L 3.65625 -3.90625 L 3.671875 -3.90625 L 3.828125 -3.8125 L 3.828125 -0.421875 L 4.21875 -0.421875 L 4.203125 -0.03125 C 4.191406 -0.03125 4.109375 -0.015625 3.953125 0.015625 C 3.796875 0.046875 3.613281 0.0625 3.40625 0.0625 Z M 1.25 -4.453125 C 1.101562 -4.453125 0.988281 -4.5 0.90625 -4.59375 C 0.820312 -4.695312 0.78125 -4.816406 0.78125 -4.953125 C 0.78125 -5.128906 0.820312 -5.269531 0.90625 -5.375 C 1 -5.488281 1.132812 -5.546875 1.3125 -5.546875 C 1.46875 -5.546875 1.585938 -5.5 1.671875 -5.40625 C 1.753906 -5.3125 1.796875 -5.191406 1.796875 -5.046875 C 1.796875 -4.867188 1.75 -4.722656 1.65625 -4.609375 C 1.570312 -4.503906 1.4375 -4.453125 1.25 -4.453125 Z M 2.890625 -4.453125 C 2.753906 -4.453125 2.644531 -4.5 2.5625 -4.59375 C 2.476562 -4.695312 2.4375 -4.816406 2.4375 -4.953125 C 2.4375 -5.128906 2.476562 -5.269531 2.5625 -5.375 C 2.65625 -5.488281 2.789062 -5.546875 2.96875 -5.546875 C 3.125 -5.546875 3.238281 -5.5 3.3125 -5.40625 C 3.394531 -5.3125 3.4375 -5.191406 3.4375 -5.046875 C 3.4375 -4.867188 3.394531 -4.722656 3.3125 -4.609375 C 3.226562 -4.503906 3.085938 -4.453125 2.890625 -4.453125 Z M 2.890625 -4.453125 "/></g></g></g><g fill="#ffffff" fill-opacity="1"><g transform="translate(44.477697, 6.777506)"><g><path d="M 0.3125 -0.40625 L 0.765625 -0.453125 L 0.765625 -3.171875 L 0.328125 -3.296875 L 0.328125 -3.765625 L 1.390625 -3.90625 L 1.40625 -3.90625 L 1.578125 -3.78125 L 1.578125 -3.625 L 1.5625 -3.0625 L 1.578125 -3.0625 C 1.609375 -3.15625 1.679688 -3.269531 1.796875 -3.40625 C 1.921875 -3.539062 2.070312 -3.660156 2.25 -3.765625 C 2.4375 -3.867188 2.632812 -3.921875 2.84375 -3.921875 C 2.945312 -3.921875 3.035156 -3.90625 3.109375 -3.875 L 3.109375 -2.84375 C 2.972656 -2.9375 2.804688 -2.984375 2.609375 -2.984375 C 2.273438 -2.984375 1.984375 -2.894531 1.734375 -2.71875 L 1.734375 -0.46875 L 2.53125 -0.40625 L 2.53125 0 L 0.3125 0 Z M 0.3125 -0.40625 "/></g></g></g><g fill="#ffffff" fill-opacity="1"><g transform="translate(50.125046, 6.777506)"><g><path d="M 0.21875 -1.890625 C 0.21875 -2.285156 0.296875 -2.632812 0.453125 -2.9375 C 0.609375 -3.25 0.832031 -3.488281 1.125 -3.65625 C 1.425781 -3.832031 1.773438 -3.921875 2.171875 -3.921875 C 2.359375 -3.921875 2.515625 -3.90625 2.640625 -3.875 C 2.773438 -3.851562 2.925781 -3.816406 3.09375 -3.765625 L 3.296875 -3.71875 L 3.25 -2.53125 L 2.65625 -2.53125 L 2.484375 -3.296875 C 2.453125 -3.410156 2.316406 -3.46875 2.078125 -3.46875 C 1.816406 -3.46875 1.613281 -3.351562 1.46875 -3.125 C 1.332031 -2.90625 1.257812 -2.554688 1.25 -2.078125 C 1.25 -1.578125 1.335938 -1.191406 1.515625 -0.921875 C 1.691406 -0.648438 1.921875 -0.515625 2.203125 -0.515625 C 2.554688 -0.515625 2.878906 -0.609375 3.171875 -0.796875 L 3.328125 -0.453125 C 3.210938 -0.316406 3.03125 -0.191406 2.78125 -0.078125 C 2.53125 0.0234375 2.265625 0.078125 1.984375 0.078125 C 1.398438 0.078125 0.957031 -0.101562 0.65625 -0.46875 C 0.363281 -0.832031 0.21875 -1.304688 0.21875 -1.890625 Z M 0.21875 -1.890625 "/></g></g></g><g fill="#ffffff" fill-opacity="1"><g transform="translate(56.10257, 6.777506)"><g><path d="M 1.125 -4.453125 C 0.957031 -4.453125 0.828125 -4.5 0.734375 -4.59375 C 0.640625 -4.6875 0.59375 -4.8125 0.59375 -4.96875 C 0.59375 -5.132812 0.644531 -5.273438 0.75 -5.390625 C 0.863281 -5.503906 1.015625 -5.5625 1.203125 -5.5625 C 1.378906 -5.5625 1.515625 -5.507812 1.609375 -5.40625 C 1.710938 -5.3125 1.765625 -5.191406 1.765625 -5.046875 C 1.765625 -4.867188 1.707031 -4.722656 1.59375 -4.609375 C 1.488281 -4.503906 1.335938 -4.453125 1.140625 -4.453125 Z M 0.765625 -3.171875 L 0.28125 -3.296875 L 0.28125 -3.765625 L 1.53125 -3.90625 L 1.546875 -3.90625 L 1.734375 -3.78125 L 1.734375 -0.46875 L 2.203125 -0.40625 L 2.203125 0 L 0.28125 0 L 0.28125 -0.40625 L 0.765625 -0.46875 Z M 0.765625 -3.171875 "/></g></g></g><g fill="#ffffff" fill-opacity="1"><g transform="translate(60.896968, 6.777506)"><g><path d="M 0.625 -5.03125 L 0.109375 -5.109375 L 0.109375 -5.484375 L 1.390625 -5.640625 L 1.40625 -5.640625 L 1.59375 -5.5 L 1.59375 -3.96875 L 1.546875 -3.375 C 1.691406 -3.5 1.882812 -3.613281 2.125 -3.71875 C 2.375 -3.832031 2.632812 -3.890625 2.90625 -3.890625 C 3.1875 -3.890625 3.40625 -3.835938 3.5625 -3.734375 C 3.726562 -3.628906 3.84375 -3.46875 3.90625 -3.25 C 3.976562 -3.03125 4.015625 -2.734375 4.015625 -2.359375 L 4.015625 -0.46875 L 4.453125 -0.40625 L 4.453125 0 L 2.640625 0 L 2.640625 -0.40625 L 3.03125 -0.46875 L 3.03125 -2.359375 C 3.03125 -2.597656 3.015625 -2.785156 2.984375 -2.921875 C 2.953125 -3.054688 2.894531 -3.15625 2.8125 -3.21875 C 2.726562 -3.28125 2.601562 -3.3125 2.4375 -3.3125 C 2.300781 -3.3125 2.15625 -3.273438 2 -3.203125 C 1.851562 -3.140625 1.722656 -3.066406 1.609375 -2.984375 L 1.609375 -0.46875 L 2.03125 -0.40625 L 2.03125 0 L 0.25 0 L 0.25 -0.40625 L 0.625 -0.46875 Z M 0.625 -5.03125 "/></g></g></g><g fill="#ffffff" fill-opacity="1"><g transform="translate(67.913167, 6.777506)"><g><path d="M 0.234375 -1.078125 C 0.234375 -1.492188 0.441406 -1.804688 0.859375 -2.015625 C 1.273438 -2.222656 1.816406 -2.332031 2.484375 -2.34375 L 2.484375 -2.5 C 2.484375 -2.6875 2.460938 -2.832031 2.421875 -2.9375 C 2.390625 -3.039062 2.320312 -3.117188 2.21875 -3.171875 C 2.113281 -3.222656 1.960938 -3.25 1.765625 -3.25 C 1.546875 -3.25 1.34375 -3.21875 1.15625 -3.15625 C 0.976562 -3.101562 0.796875 -3.03125 0.609375 -2.9375 L 0.390625 -3.375 C 0.460938 -3.4375 0.578125 -3.507812 0.734375 -3.59375 C 0.898438 -3.675781 1.09375 -3.75 1.3125 -3.8125 C 1.539062 -3.875 1.773438 -3.90625 2.015625 -3.90625 C 2.367188 -3.90625 2.644531 -3.859375 2.84375 -3.765625 C 3.039062 -3.671875 3.179688 -3.523438 3.265625 -3.328125 C 3.359375 -3.128906 3.40625 -2.859375 3.40625 -2.515625 L 3.40625 -0.40625 L 3.78125 -0.40625 L 3.78125 -0.03125 C 3.6875 -0.0078125 3.550781 0.0078125 3.375 0.03125 C 3.207031 0.0625 3.0625 0.078125 2.9375 0.078125 C 2.78125 0.078125 2.675781 0.0507812 2.625 0 C 2.570312 -0.0390625 2.546875 -0.132812 2.546875 -0.28125 L 2.546875 -0.453125 C 2.421875 -0.316406 2.257812 -0.191406 2.0625 -0.078125 C 1.863281 0.0234375 1.640625 0.078125 1.390625 0.078125 C 1.179688 0.078125 0.988281 0.0351562 0.8125 -0.046875 C 0.632812 -0.140625 0.492188 -0.269531 0.390625 -0.4375 C 0.285156 -0.613281 0.234375 -0.828125 0.234375 -1.078125 Z M 1.828125 -0.5 C 1.929688 -0.5 2.039062 -0.523438 2.15625 -0.578125 C 2.28125 -0.640625 2.390625 -0.710938 2.484375 -0.796875 L 2.484375 -1.921875 C 2.078125 -1.921875 1.769531 -1.847656 1.5625 -1.703125 C 1.363281 -1.566406 1.265625 -1.390625 1.265625 -1.171875 C 1.265625 -0.953125 1.3125 -0.785156 1.40625 -0.671875 C 1.507812 -0.554688 1.648438 -0.5 1.828125 -0.5 Z M 1.828125 -0.5 "/></g></g></g><g fill="#ffffff" fill-opacity="1"><g transform="translate(74.213991, 6.777506)"><g><path d="M 0.6875 -3.171875 L 0.25 -3.296875 L 0.25 -3.765625 L 1.390625 -3.90625 L 1.421875 -3.90625 L 1.59375 -3.78125 L 1.59375 -3.5 L 1.578125 -3.34375 C 1.742188 -3.488281 1.953125 -3.613281 2.203125 -3.71875 C 2.460938 -3.832031 2.722656 -3.890625 2.984375 -3.890625 C 3.265625 -3.890625 3.484375 -3.835938 3.640625 -3.734375 C 3.796875 -3.640625 3.90625 -3.476562 3.96875 -3.25 C 4.039062 -3.03125 4.078125 -2.734375 4.078125 -2.359375 L 4.078125 -0.46875 L 4.5 -0.40625 L 4.5 0 L 2.734375 0 L 2.734375 -0.40625 L 3.09375 -0.46875 L 3.09375 -2.359375 C 3.09375 -2.597656 3.078125 -2.785156 3.046875 -2.921875 C 3.015625 -3.054688 2.957031 -3.15625 2.875 -3.21875 C 2.789062 -3.28125 2.671875 -3.3125 2.515625 -3.3125 C 2.253906 -3.3125 1.972656 -3.203125 1.671875 -2.984375 L 1.671875 -0.46875 L 2.09375 -0.40625 L 2.09375 0 L 0.296875 0 L 0.296875 -0.40625 L 0.6875 -0.46875 Z M 0.6875 -3.171875 "/></g></g></g><g fill="#ffffff" fill-opacity="1"><g transform="translate(81.305857, 6.777506)"><g/></g></g><g fill="#ffffff" fill-opacity="1"><g transform="translate(85.343606, 6.777506)"><g><path d="M 1.875 -5.140625 L 2.921875 -5.140625 L 4.515625 -0.484375 L 4.921875 -0.40625 L 4.921875 0 L 2.890625 0 L 2.890625 -0.40625 L 3.40625 -0.484375 L 3.140625 -1.375 L 1.359375 -1.375 L 1.09375 -0.46875 L 1.640625 -0.40625 L 1.640625 0 L -0.109375 0 L -0.109375 -0.40625 L 0.296875 -0.484375 Z M 2.34375 -3.96875 L 2.234375 -4.515625 L 2.09375 -3.96875 L 1.484375 -1.859375 L 3 -1.859375 Z M 2.34375 -3.96875 "/></g></g></g><g fill="#ffffff" fill-opacity="1"><g transform="translate(92.579921, 6.777506)"><g><path d="M 0.703125 -5.03125 L 0.203125 -5.109375 L 0.203125 -5.484375 L 1.46875 -5.640625 L 1.484375 -5.640625 L 1.671875 -5.5 L 1.671875 -0.46875 L 2.171875 -0.40625 L 2.171875 0 L 0.234375 0 L 0.234375 -0.40625 L 0.703125 -0.46875 Z M 0.703125 -5.03125 "/></g></g></g><g fill="#ffffff" fill-opacity="1"><g transform="translate(97.32617, 6.777506)"><g><path d="M 1.46875 0.0625 C 1.175781 0.0625 0.960938 -0.00390625 0.828125 -0.140625 C 0.691406 -0.273438 0.625 -0.484375 0.625 -0.765625 L 0.625 -3.296875 L 0.171875 -3.296875 L 0.171875 -3.65625 C 0.210938 -3.664062 0.28125 -3.6875 0.375 -3.71875 C 0.46875 -3.757812 0.539062 -3.789062 0.59375 -3.8125 C 0.664062 -3.863281 0.734375 -3.96875 0.796875 -4.125 C 0.835938 -4.21875 0.910156 -4.453125 1.015625 -4.828125 L 1.5625 -4.828125 L 1.59375 -3.828125 L 2.640625 -3.828125 L 2.640625 -3.296875 L 1.609375 -3.296875 L 1.609375 -1.359375 C 1.609375 -1.097656 1.613281 -0.914062 1.625 -0.8125 C 1.632812 -0.707031 1.660156 -0.640625 1.703125 -0.609375 C 1.753906 -0.585938 1.835938 -0.578125 1.953125 -0.578125 C 2.066406 -0.578125 2.1875 -0.585938 2.3125 -0.609375 C 2.4375 -0.628906 2.539062 -0.660156 2.625 -0.703125 L 2.75 -0.3125 C 2.625 -0.21875 2.4375 -0.128906 2.1875 -0.046875 C 1.9375 0.0234375 1.695312 0.0625 1.46875 0.0625 Z M 1.46875 0.0625 "/></g></g></g><g fill="#ffffff" fill-opacity="1"><g transform="translate(102.540169, 6.777506)"><g><path d="M 0.234375 -1.078125 C 0.234375 -1.492188 0.441406 -1.804688 0.859375 -2.015625 C 1.273438 -2.222656 1.816406 -2.332031 2.484375 -2.34375 L 2.484375 -2.5 C 2.484375 -2.6875 2.460938 -2.832031 2.421875 -2.9375 C 2.390625 -3.039062 2.320312 -3.117188 2.21875 -3.171875 C 2.113281 -3.222656 1.960938 -3.25 1.765625 -3.25 C 1.546875 -3.25 1.34375 -3.21875 1.15625 -3.15625 C 0.976562 -3.101562 0.796875 -3.03125 0.609375 -2.9375 L 0.390625 -3.375 C 0.460938 -3.4375 0.578125 -3.507812 0.734375 -3.59375 C 0.898438 -3.675781 1.09375 -3.75 1.3125 -3.8125 C 1.539062 -3.875 1.773438 -3.90625 2.015625 -3.90625 C 2.367188 -3.90625 2.644531 -3.859375 2.84375 -3.765625 C 3.039062 -3.671875 3.179688 -3.523438 3.265625 -3.328125 C 3.359375 -3.128906 3.40625 -2.859375 3.40625 -2.515625 L 3.40625 -0.40625 L 3.78125 -0.40625 L 3.78125 -0.03125 C 3.6875 -0.0078125 3.550781 0.0078125 3.375 0.03125 C 3.207031 0.0625 3.0625 0.078125 2.9375 0.078125 C 2.78125 0.078125 2.675781 0.0507812 2.625 0 C 2.570312 -0.0390625 2.546875 -0.132812 2.546875 -0.28125 L 2.546875 -0.453125 C 2.421875 -0.316406 2.257812 -0.191406 2.0625 -0.078125 C 1.863281 0.0234375 1.640625 0.078125 1.390625 0.078125 C 1.179688 0.078125 0.988281 0.0351562 0.8125 -0.046875 C 0.632812 -0.140625 0.492188 -0.269531 0.390625 -0.4375 C 0.285156 -0.613281 0.234375 -0.828125 0.234375 -1.078125 Z M 1.828125 -0.5 C 1.929688 -0.5 2.039062 -0.523438 2.15625 -0.578125 C 2.28125 -0.640625 2.390625 -0.710938 2.484375 -0.796875 L 2.484375 -1.921875 C 2.078125 -1.921875 1.769531 -1.847656 1.5625 -1.703125 C 1.363281 -1.566406 1.265625 -1.390625 1.265625 -1.171875 C 1.265625 -0.953125 1.3125 -0.785156 1.40625 -0.671875 C 1.507812 -0.554688 1.648438 -0.5 1.828125 -0.5 Z M 1.828125 -0.5 "/></g></g></g><g fill="#ffffff" fill-opacity="1"><g transform="translate(108.840993, 6.777506)"><g><path d="M 0.625 -5.03125 L 0.125 -5.109375 L 0.125 -5.484375 L 1.390625 -5.640625 L 1.40625 -5.640625 L 1.59375 -5.5 L 1.59375 -2.234375 L 1.578125 -1.875 L 2.984375 -3.34375 L 2.46875 -3.421875 L 2.46875 -3.8125 L 4.265625 -3.8125 L 4.265625 -3.421875 L 3.703125 -3.328125 L 2.859375 -2.515625 L 4.0625 -0.46875 L 4.4375 -0.40625 L 4.4375 0 L 2.625 0 L 2.625 -0.40625 L 2.984375 -0.46875 L 2.1875 -1.921875 L 1.578125 -1.296875 L 1.59375 -0.953125 L 1.59375 -0.46875 L 2.015625 -0.40625 L 2.015625 0 L 0.234375 0 L 0.234375 -0.40625 L 0.625 -0.46875 Z M 0.625 -5.03125 "/></g></g></g><g fill="#ffffff" fill-opacity="1"><g transform="translate(115.575167, 6.777506)"><g><path d="M 0.234375 -1.078125 C 0.234375 -1.492188 0.441406 -1.804688 0.859375 -2.015625 C 1.273438 -2.222656 1.816406 -2.332031 2.484375 -2.34375 L 2.484375 -2.5 C 2.484375 -2.6875 2.460938 -2.832031 2.421875 -2.9375 C 2.390625 -3.039062 2.320312 -3.117188 2.21875 -3.171875 C 2.113281 -3.222656 1.960938 -3.25 1.765625 -3.25 C 1.546875 -3.25 1.34375 -3.21875 1.15625 -3.15625 C 0.976562 -3.101562 0.796875 -3.03125 0.609375 -2.9375 L 0.390625 -3.375 C 0.460938 -3.4375 0.578125 -3.507812 0.734375 -3.59375 C 0.898438 -3.675781 1.09375 -3.75 1.3125 -3.8125 C 1.539062 -3.875 1.773438 -3.90625 2.015625 -3.90625 C 2.367188 -3.90625 2.644531 -3.859375 2.84375 -3.765625 C 3.039062 -3.671875 3.179688 -3.523438 3.265625 -3.328125 C 3.359375 -3.128906 3.40625 -2.859375 3.40625 -2.515625 L 3.40625 -0.40625 L 3.78125 -0.40625 L 3.78125 -0.03125 C 3.6875 -0.0078125 3.550781 0.0078125 3.375 0.03125 C 3.207031 0.0625 3.0625 0.078125 2.9375 0.078125 C 2.78125 0.078125 2.675781 0.0507812 2.625 0 C 2.570312 -0.0390625 2.546875 -0.132812 2.546875 -0.28125 L 2.546875 -0.453125 C 2.421875 -0.316406 2.257812 -0.191406 2.0625 -0.078125 C 1.863281 0.0234375 1.640625 0.078125 1.390625 0.078125 C 1.179688 0.078125 0.988281 0.0351562 0.8125 -0.046875 C 0.632812 -0.140625 0.492188 -0.269531 0.390625 -0.4375 C 0.285156 -0.613281 0.234375 -0.828125 0.234375 -1.078125 Z M 1.828125 -0.5 C 1.929688 -0.5 2.039062 -0.523438 2.15625 -0.578125 C 2.28125 -0.640625 2.390625 -0.710938 2.484375 -0.796875 L 2.484375 -1.921875 C 2.078125 -1.921875 1.769531 -1.847656 1.5625 -1.703125 C 1.363281 -1.566406 1.265625 -1.390625 1.265625 -1.171875 C 1.265625 -0.953125 1.3125 -0.785156 1.40625 -0.671875 C 1.507812 -0.554688 1.648438 -0.5 1.828125 -0.5 Z M 1.828125 -0.5 "/></g></g></g><g fill="#ffffff" fill-opacity="1"><g transform="translate(121.875991, 6.777506)"><g><path d="M 0.6875 -3.171875 L 0.25 -3.296875 L 0.25 -3.765625 L 1.390625 -3.90625 L 1.421875 -3.90625 L 1.59375 -3.78125 L 1.59375 -3.5 L 1.578125 -3.34375 C 1.742188 -3.488281 1.953125 -3.613281 2.203125 -3.71875 C 2.460938 -3.832031 2.722656 -3.890625 2.984375 -3.890625 C 3.265625 -3.890625 3.484375 -3.835938 3.640625 -3.734375 C 3.796875 -3.640625 3.90625 -3.476562 3.96875 -3.25 C 4.039062 -3.03125 4.078125 -2.734375 4.078125 -2.359375 L 4.078125 -0.46875 L 4.5 -0.40625 L 4.5 0 L 2.734375 0 L 2.734375 -0.40625 L 3.09375 -0.46875 L 3.09375 -2.359375 C 3.09375 -2.597656 3.078125 -2.785156 3.046875 -2.921875 C 3.015625 -3.054688 2.957031 -3.15625 2.875 -3.21875 C 2.789062 -3.28125 2.671875 -3.3125 2.515625 -3.3125 C 2.253906 -3.3125 1.972656 -3.203125 1.671875 -2.984375 L 1.671875 -0.46875 L 2.09375 -0.40625 L 2.09375 0 L 0.296875 0 L 0.296875 -0.40625 L 0.6875 -0.46875 Z M 0.6875 -3.171875 "/></g></g></g></g></g></g></g></svg>